<svg width="377" height="434" viewBox="0 0 377 434" fill="none" xmlns="http://www.w3.org/2000/svg">
<path d="M375.701 277.981V277.981C370.972 270.914 360.167 272.335 357.159 280.288C349.922 299.426 343.297 312.994 334.544 327.187C328.291 337.326 318.115 342.581 307.935 336.395V336.395C288.617 324.656 257.785 331.946 255.279 354.411C253.399 371.258 250.688 386.199 246.661 402.836C245.05 409.488 241.773 415.64 237.151 420.689C223.634 435.457 211.844 446.287 198.541 451.633C156.185 468.652 101.152 422.525 107.004 377.254C108.962 362.107 121.653 352.585 144.915 344.331C149.197 342.812 153.676 341.751 158.204 341.388C165.961 340.766 172.118 341.204 177.944 342.66C191.398 346.02 205.196 360.864 192.723 366.925V366.925C182.429 371.928 166.369 363.381 159.807 354.004C135.385 319.107 129.489 292.531 138.799 264.725C154.441 218.007 203.578 188.814 252.729 185.429C286.86 183.08 310.149 192.146 326.794 213.499C340.382 230.929 344.605 255.987 324.29 264.69V264.69C314.485 268.891 298.126 271.145 288.699 266.151C284.873 264.125 281.81 261.115 279.35 256.282C273.785 245.352 277.705 223.969 288.6 218.336V218.336C301.042 211.902 300.664 233.732 295.868 246.894C289.581 264.15 277.436 273.764 247.397 277.254C234.357 278.769 221.103 277.218 208.571 273.311C143.996 253.179 117.868 219.009 103.233 130.32C102.232 124.254 107.627 119.083 113.658 120.278V120.278C117.954 121.129 121.045 124.981 120.761 129.352C119.828 143.693 116.818 153.733 98.6769 164.498C90.6714 169.249 81.2087 170.98 72.0495 169.317C59.7945 167.093 42.5347 161.958 33.0988 150.191C26.0133 141.355 19.7503 124.304 15.0126 108.264C7.77335 83.7533 4.29864 56.6716 15.0339 33.4784C21.4858 19.5392 30.8041 13.1764 44.3681 10.9182C59.8823 8.33537 77.3277 13.8988 87.6166 25.7941V25.7941C108.531 49.9741 70.037 85.3448 41.9789 70.0204C18.8722 57.4004 1.79491 25.5048 1.41694 -39.5771" stroke="#014944" stroke-width="2.5"/>
</svg>
