<svg width="440" height="434" viewBox="0 0 440 434" fill="none" xmlns="http://www.w3.org/2000/svg">
<path d="M363.222 478.946V478.946C369.185 468.373 360.424 455.516 348.353 456.799C319.307 459.887 297.753 460.173 274.033 458.147C257.088 456.7 243.846 447.112 245.181 430.158V430.158C247.714 397.986 218.589 363.381 188.345 374.639C165.666 383.081 144.879 389.237 121.085 394.807C111.571 397.035 101.622 396.815 92.2139 394.173C64.697 386.447 43.31 378.386 27.9392 364.871C-20.9996 321.838 2.38538 222.027 63.8463 200.361C84.4104 193.112 104.71 203.162 130.194 227.499C134.885 231.979 139.118 237.004 142.494 242.543C148.277 252.028 151.679 260.157 153.573 268.518C157.945 287.827 147.903 314.96 132.154 302.964V302.964C119.156 293.062 119.717 267.097 127.447 252.7C156.211 199.126 186.289 174.516 227.716 168.494C297.32 158.375 366.136 202.219 402.068 262.683C427.019 304.67 430.447 340.184 413.941 375.134C400.467 403.664 371.249 425.166 347.087 404.875V404.875C335.425 395.08 322.03 375.681 322.33 360.455C322.451 354.275 324.317 348.435 328.894 342.19C339.244 328.066 369.017 319.307 383.205 329.568V329.568C399.409 341.286 371.343 354.848 351.485 357.203C325.448 360.291 305.382 350.997 281.609 314.958C271.29 299.314 264.74 281.425 261.658 262.939C245.775 167.689 272.515 112.408 376.131 36.7024C383.219 31.5238 393.279 35.0729 395.636 43.5286V43.5286C397.315 49.5512 394.394 55.9685 388.642 58.4176C369.764 66.4544 355.032 69.0781 329.642 52.8824C318.437 45.7355 310.144 34.7892 306.37 22.0467C301.321 4.99723 296.762 -20.3035 305.689 -39.8991C312.392 -54.6134 330.094 -73.5644 347.489 -89.9214C374.07 -114.915 406.35 -136.766 442.815 -138.004C464.731 -138.748 478.834 -130.966 490.438 -115.131C503.71 -97.0206 507.843 -71.2079 499.301 -50.4427V-50.4427C481.939 -8.23244 412.096 -34.5382 413.577 -80.1558C414.796 -117.723 444.46 -160.006 527.162 -202.355" stroke="#014944" stroke-width="2.5"/>
</svg>
