<svg width="195" height="18" viewBox="0 0 195 18" fill="none" xmlns="http://www.w3.org/2000/svg">
<path d="M117.598 17.7885V3.69846C117.598 2.82958 117.751 2.26598 118.056 2.00766C118.361 1.72586 118.96 1.58496 119.853 1.58496H136.972V5.14269H124.538V7.78457H135.81V11.3423H124.538V14.2308H136.972V17.7885H117.598Z" fill="#F5F4EB"/>
<path d="M147.186 17.9294C145.448 17.9294 144.039 17.8824 142.959 17.7885C141.878 17.718 141.056 17.5419 140.493 17.2601C139.929 16.9548 139.542 16.5204 139.33 15.9568C139.119 15.3932 139.013 14.6535 139.013 13.7376C139.013 12.54 139.131 11.6241 139.366 10.99C139.601 10.356 139.988 9.9333 140.528 9.72195C141.068 9.48711 141.784 9.3697 142.677 9.3697C143.287 9.3697 143.98 9.38144 144.755 9.40492C145.554 9.40492 146.329 9.41666 147.08 9.44015C147.855 9.44015 148.536 9.46363 149.123 9.5106C149.734 9.55756 150.133 9.61627 150.321 9.68672C150.321 9.09964 150.274 8.62997 150.18 8.27772C150.086 7.92547 149.91 7.65541 149.651 7.46754C149.393 7.25619 149.053 7.12703 148.63 7.08007C148.207 7.00962 147.667 6.97439 147.01 6.97439C146.188 6.97439 145.354 6.98613 144.509 7.00962C143.687 7.0331 142.876 7.06833 142.078 7.11529C141.303 7.13878 140.552 7.18574 139.824 7.25619V6.09377C139.824 5.41275 139.953 4.89611 140.211 4.54386C140.469 4.19161 140.869 3.96852 141.409 3.87459C141.996 3.75717 142.853 3.67498 143.98 3.62801C145.131 3.58105 146.387 3.5693 147.749 3.59279C149.487 3.59279 150.92 3.67498 152.047 3.83936C153.197 4.00375 154.09 4.30903 154.724 4.75522C155.358 5.2014 155.792 5.85893 156.027 6.72782C156.285 7.57322 156.415 8.68868 156.415 10.0742V17.0135C155.945 17.3188 154.888 17.5536 153.244 17.718C151.624 17.8589 149.604 17.9294 147.186 17.9294ZM147.15 15.3932C147.62 15.3932 148.055 15.3814 148.454 15.358C148.853 15.3345 149.205 15.2992 149.511 15.2523C149.839 15.2053 150.109 15.1466 150.321 15.0762V11.5889C150.086 11.5419 149.745 11.5067 149.299 11.4832C148.876 11.4362 148.465 11.401 148.066 11.3775C147.667 11.354 147.374 11.3423 147.186 11.3423C146.786 11.3423 146.458 11.3893 146.199 11.4832C145.941 11.5771 145.753 11.765 145.636 12.0468C145.542 12.3286 145.495 12.7513 145.495 13.3149C145.495 13.8315 145.542 14.2425 145.636 14.5478C145.73 14.8531 145.894 15.0762 146.129 15.2171C146.364 15.3345 146.704 15.3932 147.15 15.3932Z" fill="#F5F4EB"/>
<path d="M165.916 17.8942C165.305 17.8942 164.671 17.8824 164.014 17.8589C163.356 17.8354 162.711 17.8002 162.076 17.7533C161.466 17.6828 160.902 17.5889 160.386 17.4715C159.893 17.354 159.482 17.2131 159.153 17.0488C158.848 16.8844 158.613 16.5439 158.448 16.0272C158.284 15.5106 158.202 14.7004 158.202 13.5967C159.024 13.8315 159.834 14.0311 160.632 14.1955C161.431 14.3599 162.206 14.4773 162.957 14.5478C163.732 14.6182 164.46 14.6535 165.141 14.6535C165.47 14.6535 165.881 14.6535 166.374 14.6535C166.867 14.63 167.349 14.5947 167.818 14.5478C168.288 14.4773 168.687 14.3482 169.016 14.1603C169.345 13.949 169.509 13.6672 169.509 13.3149C169.509 12.9392 169.403 12.6926 169.192 12.5752C169.004 12.4343 168.746 12.3638 168.417 12.3638H164.225C163.075 12.3638 162.065 12.3051 161.196 12.1877C160.327 12.0703 159.646 11.7415 159.153 11.2014C158.683 10.6613 158.448 9.73369 158.448 8.41862C158.448 6.98613 158.812 5.92938 159.54 5.24837C160.268 4.54386 161.313 4.08594 162.675 3.87459C164.037 3.63975 165.681 3.52234 167.607 3.52234C168.311 3.52234 169.122 3.53408 170.037 3.55756C170.977 3.55756 171.775 3.60453 172.433 3.69846C173.255 3.7924 173.889 3.92156 174.335 4.08594C174.804 4.22684 175.133 4.48516 175.321 4.86089C175.509 5.23662 175.603 5.81197 175.603 6.58692V7.67889C175.485 7.44406 175.122 7.26793 174.511 7.15052C173.9 7.0331 173.161 6.95091 172.292 6.90394C171.423 6.85698 170.507 6.83349 169.544 6.83349C168.605 6.83349 167.724 6.83349 166.902 6.83349C166.48 6.83349 166.092 6.85698 165.74 6.90394C165.411 6.95091 165.153 7.05658 164.965 7.22097C164.777 7.38535 164.683 7.65541 164.683 8.03114C164.683 8.31294 164.742 8.51255 164.859 8.62997C164.977 8.74739 165.141 8.82958 165.352 8.87654C165.564 8.90003 165.799 8.91177 166.057 8.91177H170.848C171.881 8.91177 172.773 9.0057 173.525 9.19357C174.3 9.38144 174.887 9.76891 175.286 10.356C175.709 10.9431 175.92 11.8707 175.92 13.1388C175.92 14.5947 175.497 15.6632 174.652 16.3443C173.806 17.0018 172.632 17.4245 171.129 17.6124C169.65 17.8002 167.912 17.8942 165.916 17.8942Z" fill="#F5F4EB"/>
<path d="M186.1 17.9646C184.362 17.9646 182.929 17.8707 181.802 17.6828C180.699 17.4949 179.83 17.1662 179.196 16.6965C178.585 16.2034 178.151 15.5106 177.892 14.6182C177.634 13.7259 177.505 12.5869 177.505 11.2014C177.505 9.32273 177.775 7.84328 178.315 6.76304C178.855 5.65932 179.794 4.87263 181.133 4.40296C182.495 3.90981 184.385 3.66324 186.804 3.66324C188.706 3.66324 190.209 3.85111 191.313 4.22684C192.44 4.60257 193.239 5.17792 193.708 5.95287C194.201 6.72782 194.448 7.72586 194.448 8.947V11.9411H184.726C184.726 11.354 184.843 10.8726 185.078 10.4969C185.336 10.0977 185.818 9.89807 186.522 9.89807H188.847V9.2288C188.824 8.45384 188.659 7.86676 188.354 7.46754C188.072 7.06833 187.473 6.86872 186.558 6.86872C185.806 6.86872 185.231 6.98614 184.832 7.22097C184.456 7.43232 184.198 7.84328 184.057 8.45384C183.916 9.04093 183.845 9.90981 183.845 11.0605C183.845 12.0468 183.939 12.7865 184.127 13.2797C184.315 13.7493 184.667 14.0664 185.184 14.2308C185.724 14.3717 186.499 14.4421 187.509 14.4421C187.908 14.4421 188.46 14.4304 189.164 14.4069C189.892 14.3834 190.632 14.3717 191.383 14.3717C192.158 14.3482 192.839 14.3247 193.427 14.3012C194.014 14.2542 194.366 14.219 194.483 14.1955V14.9353C194.483 15.2875 194.425 15.6867 194.307 16.1329C194.213 16.5556 194.037 16.8844 193.779 17.1192C193.38 17.4949 192.569 17.7298 191.348 17.8237C190.127 17.9176 188.378 17.9646 186.1 17.9646Z" fill="#F5F4EB"/>
<path d="M0 17.7886L5.28376 4.19178C5.61252 3.3229 6.09393 2.65362 6.72798 2.18395C7.36204 1.6908 8.38356 1.44423 9.79256 1.44423C10.9667 1.44423 11.8943 1.66732 12.5753 2.1135C13.2564 2.55969 13.7847 3.25244 14.1605 4.19178L19.5147 17.7886H14.407L12.8924 13.8787H5.03718L3.62818 17.7886H0ZM5.81213 12.0117H12.0117L9.96869 6.30528C9.89824 6.07045 9.79256 5.8591 9.65166 5.67123C9.53425 5.45988 9.29941 5.35421 8.94716 5.35421C8.54795 5.35421 8.27789 5.45988 8.13699 5.67123C8.01957 5.8591 7.9139 6.07045 7.81996 6.30528L5.81213 12.0117Z" fill="#021A18"/>
<path d="M29.6303 18C27.6342 18 26.0139 17.8239 24.7693 17.4716C23.5481 17.0959 22.6558 16.4031 22.0922 15.3933C21.552 14.3836 21.282 12.9158 21.282 10.9902C21.282 8.94716 21.552 7.39726 22.0922 6.34051C22.6558 5.26027 23.5481 4.52055 24.7693 4.12133C26.0139 3.72211 27.6342 3.5225 29.6303 3.5225C30.2409 3.5225 30.828 3.55773 31.3916 3.62818C31.9552 3.67515 32.6245 3.75734 33.3994 3.87475C33.8221 3.92172 34.1626 4.01565 34.4209 4.15655C34.7027 4.29745 34.9141 4.53229 35.055 4.86106C35.1959 5.18982 35.2663 5.67123 35.2663 6.30528C34.9845 6.18787 34.5736 6.09393 34.0335 6.02348C33.4933 5.92955 32.918 5.8591 32.3074 5.81213C31.7203 5.76517 31.1802 5.74168 30.6871 5.74168C29.4425 5.74168 28.4444 5.89432 27.6929 6.19961C26.965 6.50489 26.4366 7.02153 26.1078 7.74951C25.8025 8.47749 25.6499 9.46379 25.6499 10.7084C25.6499 11.953 25.8025 12.9393 26.1078 13.6673C26.4131 14.3953 26.9297 14.9119 27.6577 15.2172C28.4092 15.5225 29.419 15.6751 30.6871 15.6751C31.2742 15.6751 31.8612 15.6517 32.4483 15.6047C33.0589 15.5342 33.6108 15.4638 34.1039 15.3933C34.5971 15.2994 34.9845 15.1937 35.2663 15.0763V16.274C35.2663 16.7671 35.008 17.1429 34.4914 17.4012C33.9982 17.636 33.329 17.7886 32.4836 17.8591C31.6381 17.953 30.6871 18 29.6303 18Z" fill="#021A18"/>
<path d="M44.8118 17.9648C43.2619 17.9648 42.0055 17.9061 41.0427 17.7886C40.0799 17.6947 39.3401 17.4951 38.8235 17.1898C38.3069 16.8611 37.9546 16.4149 37.7668 15.8513C37.5789 15.2877 37.485 14.5714 37.485 13.7025C37.485 12.5049 37.6141 11.589 37.8724 10.955C38.1307 10.3209 38.5652 9.89824 39.1758 9.68689C39.8098 9.45205 40.6552 9.33464 41.712 9.33464C42.299 9.33464 42.9566 9.34638 43.6846 9.36986C44.436 9.36986 45.164 9.3816 45.8685 9.40509C46.573 9.42857 47.1836 9.47554 47.7002 9.54599C48.2403 9.59295 48.6043 9.63992 48.7922 9.68689C48.7922 8.84149 48.7217 8.17221 48.5808 7.67906C48.4399 7.18591 48.2051 6.81017 47.8763 6.55186C47.5476 6.29354 47.1249 6.12916 46.6082 6.05871C46.1151 5.98826 45.5163 5.95303 44.8118 5.95303C44.0133 5.95303 43.2032 5.97652 42.3812 6.02348C41.5828 6.04697 40.8196 6.10567 40.0916 6.19961C39.3871 6.27006 38.7648 6.37573 38.2247 6.51663V5.70646C38.2247 5.11937 38.3656 4.69667 38.6474 4.43836C38.9292 4.15655 39.2932 3.96869 39.7394 3.87475C40.256 3.75734 41.0075 3.67515 41.9938 3.62818C43.0036 3.58121 44.072 3.55773 45.1992 3.55773C46.6552 3.55773 47.8764 3.62818 48.8627 3.76908C49.849 3.90998 50.6356 4.19178 51.2227 4.61448C51.8333 5.03718 52.2677 5.65949 52.5261 6.48141C52.7844 7.27984 52.9135 8.36008 52.9135 9.72211V16.8376C52.6317 17.2368 51.8098 17.5303 50.4478 17.7182C49.1092 17.8826 47.2306 17.9648 44.8118 17.9648ZM44.7765 16.1331C45.575 16.1331 46.2325 16.1213 46.7491 16.0978C47.2893 16.0509 47.7237 15.9804 48.0525 15.8865C48.3812 15.7926 48.6278 15.6751 48.7922 15.5342V11.1663C48.5574 11.0959 48.1816 11.0372 47.665 10.9902C47.1718 10.9198 46.667 10.8728 46.1503 10.8493C45.6337 10.8023 45.1992 10.7789 44.847 10.7789C44.1425 10.7789 43.5671 10.8376 43.121 10.955C42.6748 11.0489 42.346 11.2838 42.1347 11.6595C41.9468 12.0352 41.8529 12.6223 41.8529 13.4207C41.8529 14.0548 41.9233 14.5832 42.0642 15.0059C42.2051 15.4051 42.4869 15.6986 42.9096 15.8865C43.3323 16.0509 43.9546 16.1331 44.7765 16.1331Z" fill="#021A18"/>
<path d="M55.6126 10.7436C55.6126 8.818 55.8827 7.33855 56.4228 6.30528C56.9629 5.27201 57.7379 4.56751 58.7477 4.19178C59.7809 3.79256 61.0021 3.59295 62.4111 3.59295C62.8338 3.59295 63.3152 3.61644 63.8553 3.6634C64.4189 3.71037 64.959 3.78082 65.4757 3.87475C65.9923 3.9452 66.4502 4.03914 66.8494 4.15655C67.2487 4.25049 67.5422 4.35616 67.7301 4.47358L66.6733 4.93151V0H70.9003L70.8651 10.7084C70.8651 12.3053 70.7359 13.5851 70.4776 14.5479C70.2193 15.4873 69.7849 16.2035 69.1743 16.6967C68.5872 17.1663 67.777 17.4834 66.7438 17.6477C65.734 17.7886 64.4659 17.8591 62.9395 17.8591C61.5539 17.8591 60.3798 17.7652 59.417 17.5773C58.4776 17.3894 57.7262 17.0489 57.1626 16.5558C56.6224 16.0626 56.2232 15.3464 55.9649 14.407C55.7301 13.4677 55.6126 12.2466 55.6126 10.7436ZM63.0451 15.6047C63.8201 15.6047 64.4424 15.546 64.9121 15.4286C65.4052 15.2877 65.7692 15.0646 66.004 14.7593C66.2624 14.454 66.4385 14.0196 66.5324 13.456C66.6263 12.8689 66.6733 12.1292 66.6733 11.2368L66.6381 6.19961C66.4502 6.17612 66.1919 6.16438 65.8631 6.16438C65.5344 6.1409 65.1939 6.11741 64.8416 6.09393C64.4894 6.07045 64.1606 6.05871 63.8553 6.05871C62.869 6.05871 62.0823 6.18787 61.4952 6.44618C60.9316 6.68102 60.5207 7.13894 60.2624 7.81996C60.0275 8.50098 59.9101 9.49902 59.9101 10.8141C59.9101 12.1761 60.004 13.1977 60.1919 13.8787C60.4033 14.5597 60.7438 15.0176 61.2134 15.2524C61.6831 15.4873 62.2937 15.6047 63.0451 15.6047Z" fill="#021A18"/>
<path d="M81.3908 18C79.8409 18 78.561 17.9061 77.5512 17.7182C76.5415 17.5068 75.743 17.1546 75.156 16.6614C74.5689 16.1683 74.1462 15.4638 73.8878 14.5479C73.6295 13.6321 73.5004 12.4579 73.5004 11.0254C73.5004 9.2407 73.7352 7.80822 74.2049 6.72798C74.698 5.64775 75.5434 4.86106 76.7411 4.36791C77.9622 3.87475 79.653 3.62818 81.8135 3.62818C83.5043 3.62818 84.8546 3.81605 85.8644 4.19178C86.8741 4.56751 87.6021 5.16634 88.0483 5.98826C88.4945 6.78669 88.7176 7.81996 88.7176 9.08806V11.5538H78.8546C78.8546 11.1311 78.9485 10.7789 79.1364 10.4971C79.3477 10.1918 79.7117 10.0391 80.2284 10.0391H84.8781V9.19374C84.8546 8.06653 84.608 7.23288 84.1383 6.69276C83.6922 6.15264 82.8702 5.88258 81.6726 5.88258C80.6628 5.88258 79.8761 6.03522 79.3125 6.34051C78.7724 6.64579 78.3849 7.16243 78.1501 7.89041C77.9387 8.61839 77.8331 9.63992 77.8331 10.955C77.8331 12.2231 77.9622 13.1859 78.2205 13.8434C78.4788 14.501 78.925 14.9472 79.5591 15.182C80.2166 15.3933 81.1207 15.499 82.2714 15.499C82.6941 15.499 83.2225 15.4873 83.8565 15.4638C84.5141 15.4403 85.1716 15.4168 85.8291 15.3933C86.5102 15.3464 87.109 15.2994 87.6256 15.2524C88.1423 15.182 88.471 15.1233 88.6119 15.0763V15.6399C88.6119 15.9217 88.5532 16.227 88.4358 16.5558C88.3419 16.8611 88.1188 17.1076 87.7665 17.2955C87.3203 17.5773 86.5689 17.7652 85.5121 17.8591C84.4788 17.953 83.1051 18 81.3908 18Z" fill="#021A18"/>
<path d="M93.1232 17.7886C92.4657 17.7886 92.0312 17.6947 91.8199 17.5068C91.6085 17.2955 91.5028 16.8493 91.5028 16.1683V4.68493C91.8081 4.56751 92.2073 4.46184 92.7005 4.36791C93.1936 4.25049 93.7455 4.14481 94.3561 4.05088C94.9666 3.93346 95.6124 3.83953 96.2935 3.76908C96.998 3.69863 97.6907 3.6634 98.3717 3.6634C99.2641 3.6634 100.027 3.73385 100.661 3.87475C101.319 4.01565 101.871 4.27397 102.317 4.6497C102.787 5.00196 103.186 5.53033 103.515 6.23483H102.845C103.057 5.69472 103.35 5.26027 103.726 4.93151C104.102 4.57926 104.548 4.32094 105.064 4.15655C105.581 3.96869 106.098 3.83953 106.614 3.76908C107.131 3.69863 107.601 3.6634 108.023 3.6634C109.55 3.6634 110.747 3.8043 111.616 4.0861C112.485 4.34442 113.108 4.81409 113.483 5.49511C113.882 6.15264 114.082 7.08023 114.082 8.27789V16.3092C114.082 16.9432 113.965 17.3542 113.73 17.5421C113.519 17.7065 113.096 17.7886 112.462 17.7886H109.785C109.785 16.1683 109.785 14.5597 109.785 12.9628C109.785 11.3659 109.785 9.75734 109.785 8.13698C109.785 7.17417 109.585 6.54012 109.186 6.23483C108.787 5.90607 108.188 5.74168 107.389 5.74168C107.014 5.74168 106.638 5.80039 106.262 5.91781C105.886 6.01174 105.569 6.15264 105.311 6.34051C105.076 6.52838 104.959 6.75147 104.959 7.00978V17.7886H100.661V7.57338C100.661 6.9863 100.438 6.55186 99.9921 6.27006C99.5459 5.96477 98.9588 5.81213 98.2308 5.81213C97.7846 5.81213 97.3854 5.84736 97.0332 5.91781C96.6809 5.96477 96.3874 6.05871 96.1526 6.19961C95.9412 6.31702 95.8238 6.48141 95.8003 6.69276V17.7886H93.1232Z" fill="#021A18"/>
</svg>
