<svg width="188" height="19" viewBox="0 0 188 19" fill="none" xmlns="http://www.w3.org/2000/svg">
<path d="M0.52493 18L5.62493 4.876C5.94226 4.03733 6.40693 3.39133 7.01893 2.938C7.63093 2.462 8.61693 2.224 9.97693 2.224C11.1103 2.224 12.0056 2.43933 12.6629 2.87C13.3203 3.30067 13.8303 3.96933 14.1929 4.876L19.3609 18H14.4309L12.9689 14.226H5.38693L4.02693 18H0.52493ZM6.13493 12.424H12.1189L10.1469 6.916C10.0789 6.68933 9.97693 6.48533 9.84093 6.304C9.7276 6.1 9.50093 5.998 9.16093 5.998C8.7756 5.998 8.51493 6.1 8.37893 6.304C8.2656 6.48533 8.1636 6.68933 8.07293 6.916L6.13493 12.424ZM29.1248 18.204C27.1981 18.204 25.6341 18.034 24.4328 17.694C23.2541 17.3313 22.3928 16.6627 21.8488 15.688C21.3274 14.7133 21.0668 13.2967 21.0668 11.438C21.0668 9.466 21.3274 7.97 21.8488 6.95C22.3928 5.90733 23.2541 5.19333 24.4328 4.808C25.6341 4.42267 27.1981 4.23 29.1248 4.23C29.7141 4.23 30.2808 4.264 30.8248 4.332C31.3688 4.37733 32.0148 4.45667 32.7628 4.57C33.1708 4.61533 33.4994 4.706 33.7488 4.842C34.0208 4.978 34.2248 5.20467 34.3608 5.522C34.4968 5.83933 34.5648 6.304 34.5648 6.916C34.2928 6.80267 33.8961 6.712 33.3748 6.644C32.8534 6.55333 32.2981 6.48533 31.7088 6.44C31.1421 6.39467 30.6208 6.372 30.1448 6.372C28.9434 6.372 27.9801 6.51933 27.2548 6.814C26.5521 7.10867 26.0421 7.60733 25.7248 8.31C25.4301 9.01267 25.2828 9.96467 25.2828 11.166C25.2828 12.3673 25.4301 13.3193 25.7248 14.022C26.0194 14.7247 26.5181 15.2233 27.2208 15.518C27.9461 15.8127 28.9208 15.96 30.1448 15.96C30.7114 15.96 31.2781 15.9373 31.8448 15.892C32.4341 15.824 32.9668 15.756 33.4428 15.688C33.9188 15.5973 34.2928 15.4953 34.5648 15.382V16.538C34.5648 17.014 34.3154 17.3767 33.8168 17.626C33.3408 17.8527 32.6948 18 31.8788 18.068C31.0628 18.1587 30.1448 18.204 29.1248 18.204ZM43.7782 18.17C42.2822 18.17 41.0696 18.1133 40.1402 18C39.2109 17.9093 38.4969 17.7167 37.9982 17.422C37.4996 17.1047 37.1596 16.674 36.9782 16.13C36.7969 15.586 36.7062 14.8947 36.7062 14.056C36.7062 12.9 36.8309 12.016 37.0802 11.404C37.3296 10.792 37.7489 10.384 38.3382 10.18C38.9502 9.95333 39.7662 9.84 40.7862 9.84C41.3529 9.84 41.9876 9.85133 42.6902 9.874C43.4156 9.874 44.1182 9.88533 44.7982 9.908C45.4782 9.93067 46.0676 9.976 46.5662 10.044C47.0876 10.0893 47.4389 10.1347 47.6202 10.18C47.6202 9.364 47.5522 8.718 47.4162 8.242C47.2802 7.766 47.0536 7.40333 46.7362 7.154C46.4189 6.90467 46.0109 6.746 45.5122 6.678C45.0362 6.61 44.4582 6.576 43.7782 6.576C43.0076 6.576 42.2256 6.59867 41.4322 6.644C40.6616 6.66667 39.9249 6.72333 39.2222 6.814C38.5422 6.882 37.9416 6.984 37.4202 7.12V6.338C37.4202 5.77133 37.5562 5.36333 37.8282 5.114C38.1002 4.842 38.4516 4.66067 38.8822 4.57C39.3809 4.45667 40.1062 4.37733 41.0582 4.332C42.0329 4.28667 43.0642 4.264 44.1522 4.264C45.5576 4.264 46.7362 4.332 47.6882 4.468C48.6402 4.604 49.3996 4.876 49.9662 5.284C50.5556 5.692 50.9749 6.29267 51.2242 7.086C51.4736 7.85667 51.5982 8.89933 51.5982 10.214V17.082C51.3262 17.4673 50.5329 17.7507 49.2182 17.932C47.9262 18.0907 46.1129 18.17 43.7782 18.17ZM43.7442 16.402C44.5149 16.402 45.1496 16.3907 45.6482 16.368C46.1696 16.3227 46.5889 16.2547 46.9062 16.164C47.2236 16.0733 47.4616 15.96 47.6202 15.824V11.608C47.3936 11.54 47.0309 11.4833 46.5322 11.438C46.0562 11.37 45.5689 11.3247 45.0702 11.302C44.5716 11.2567 44.1522 11.234 43.8122 11.234C43.1322 11.234 42.5769 11.2907 42.1462 11.404C41.7156 11.4947 41.3982 11.7213 41.1942 12.084C41.0129 12.4467 40.9222 13.0133 40.9222 13.784C40.9222 14.396 40.9902 14.906 41.1262 15.314C41.2622 15.6993 41.5342 15.9827 41.9422 16.164C42.3502 16.3227 42.9509 16.402 43.7442 16.402ZM54.2035 11.2C54.2035 9.34133 54.4642 7.91333 54.9855 6.916C55.5068 5.91867 56.2548 5.23867 57.2295 4.876C58.2268 4.49067 59.4055 4.298 60.7655 4.298C61.1735 4.298 61.6382 4.32067 62.1595 4.366C62.7035 4.41133 63.2248 4.47933 63.7235 4.57C64.2222 4.638 64.6642 4.72867 65.0495 4.842C65.4348 4.93267 65.7182 5.03467 65.8995 5.148L64.8795 5.59V0.83H68.9595L68.9255 11.166C68.9255 12.7073 68.8008 13.9427 68.5515 14.872C68.3022 15.7787 67.8828 16.47 67.2935 16.946C66.7268 17.3993 65.9448 17.7053 64.9475 17.864C63.9728 18 62.7488 18.068 61.2755 18.068C59.9382 18.068 58.8048 17.9773 57.8755 17.796C56.9688 17.6147 56.2435 17.286 55.6995 16.81C55.1782 16.334 54.7928 15.6427 54.5435 14.736C54.3168 13.8293 54.2035 12.6507 54.2035 11.2ZM61.3775 15.892C62.1255 15.892 62.7262 15.8353 63.1795 15.722C63.6555 15.586 64.0068 15.3707 64.2335 15.076C64.4828 14.7813 64.6528 14.362 64.7435 13.818C64.8342 13.2513 64.8795 12.5373 64.8795 11.676L64.8455 6.814C64.6642 6.79133 64.4148 6.78 64.0975 6.78C63.7802 6.75733 63.4515 6.73467 63.1115 6.712C62.7715 6.68933 62.4542 6.678 62.1595 6.678C61.2075 6.678 60.4482 6.80267 59.8815 7.052C59.3375 7.27867 58.9408 7.72067 58.6915 8.378C58.4648 9.03533 58.3515 9.99867 58.3515 11.268C58.3515 12.5827 58.4422 13.5687 58.6235 14.226C58.8275 14.8833 59.1562 15.3253 59.6095 15.552C60.0628 15.7787 60.6522 15.892 61.3775 15.892ZM79.0851 18.204C77.5891 18.204 76.3538 18.1133 75.3791 17.932C74.4045 17.728 73.6338 17.388 73.0671 16.912C72.5005 16.436 72.0925 15.756 71.8431 14.872C71.5938 13.988 71.4691 12.8547 71.4691 11.472C71.4691 9.74933 71.6958 8.36667 72.1491 7.324C72.6251 6.28133 73.4411 5.522 74.5971 5.046C75.7758 4.57 77.4078 4.332 79.4931 4.332C81.1251 4.332 82.4285 4.51333 83.4031 4.876C84.3778 5.23867 85.0805 5.81667 85.5111 6.61C85.9418 7.38067 86.1571 8.378 86.1571 9.602V11.982H76.6371C76.6371 11.574 76.7278 11.234 76.9091 10.962C77.1131 10.6673 77.4645 10.52 77.9631 10.52H82.4511V9.704C82.4285 8.616 82.1905 7.81133 81.7371 7.29C81.3065 6.76867 80.5131 6.508 79.3571 6.508C78.3825 6.508 77.6231 6.65533 77.0791 6.95C76.5578 7.24467 76.1838 7.74333 75.9571 8.446C75.7531 9.14867 75.6511 10.1347 75.6511 11.404C75.6511 12.628 75.7758 13.5573 76.0251 14.192C76.2745 14.8267 76.7051 15.2573 77.3171 15.484C77.9518 15.688 78.8245 15.79 79.9351 15.79C80.3431 15.79 80.8531 15.7787 81.4651 15.756C82.0998 15.7333 82.7345 15.7107 83.3691 15.688C84.0265 15.6427 84.6045 15.5973 85.1031 15.552C85.6018 15.484 85.9191 15.4273 86.0551 15.382V15.926C86.0551 16.198 85.9985 16.4927 85.8851 16.81C85.7945 17.1047 85.5791 17.3427 85.2391 17.524C84.8085 17.796 84.0831 17.9773 83.0631 18.068C82.0658 18.1587 80.7398 18.204 79.0851 18.204ZM90.4095 18C89.7748 18 89.3555 17.9093 89.1515 17.728C88.9475 17.524 88.8455 17.0933 88.8455 16.436V5.352C89.1402 5.23867 89.5255 5.13667 90.0015 5.046C90.4775 4.93267 91.0102 4.83067 91.5995 4.74C92.1888 4.62667 92.8122 4.536 93.4695 4.468C94.1495 4.4 94.8182 4.366 95.4755 4.366C96.3368 4.366 97.0735 4.434 97.6855 4.57C98.3202 4.706 98.8528 4.95533 99.2835 5.318C99.7368 5.658 100.122 6.168 100.44 6.848H99.7935C99.9975 6.32667 100.281 5.90733 100.644 5.59C101.006 5.25 101.437 5.00067 101.936 4.842C102.434 4.66067 102.933 4.536 103.432 4.468C103.93 4.4 104.384 4.366 104.792 4.366C106.265 4.366 107.421 4.502 108.26 4.774C109.098 5.02333 109.699 5.47667 110.062 6.134C110.447 6.76867 110.64 7.664 110.64 8.82V16.572C110.64 17.184 110.526 17.5807 110.3 17.762C110.096 17.9207 109.688 18 109.076 18H106.492C106.492 16.436 106.492 14.8833 106.492 13.342C106.492 11.8007 106.492 10.248 106.492 8.684C106.492 7.75467 106.299 7.14267 105.914 6.848C105.528 6.53067 104.95 6.372 104.18 6.372C103.817 6.372 103.454 6.42867 103.092 6.542C102.729 6.63267 102.423 6.76867 102.174 6.95C101.947 7.13133 101.834 7.34667 101.834 7.596V18H97.6855V8.14C97.6855 7.57333 97.4702 7.154 97.0395 6.882C96.6088 6.58733 96.0422 6.44 95.3395 6.44C94.9088 6.44 94.5235 6.474 94.1835 6.542C93.8435 6.58733 93.5602 6.678 93.3335 6.814C93.1295 6.92733 93.0162 7.086 92.9935 7.29V18H90.4095Z" fill="#021A18"/>
<path d="M113.78 18V4.4C113.78 3.56133 113.928 3.01733 114.222 2.768C114.517 2.496 115.095 2.36 115.956 2.36H132.48V5.794H120.478V8.344H131.358V11.778H120.478V14.566H132.48V18H113.78ZM142.339 18.136C140.661 18.136 139.301 18.0907 138.259 18C137.216 17.932 136.423 17.762 135.879 17.49C135.335 17.1953 134.961 16.776 134.757 16.232C134.553 15.688 134.451 14.974 134.451 14.09C134.451 12.934 134.564 12.05 134.791 11.438C135.017 10.826 135.391 10.418 135.913 10.214C136.434 9.98733 137.125 9.874 137.987 9.874C138.576 9.874 139.245 9.88533 139.993 9.908C140.763 9.908 141.511 9.91933 142.237 9.942C142.985 9.942 143.642 9.96467 144.209 10.01C144.798 10.0553 145.183 10.112 145.365 10.18C145.365 9.61333 145.319 9.16 145.229 8.82C145.138 8.48 144.968 8.21933 144.719 8.038C144.469 7.834 144.141 7.70933 143.733 7.664C143.325 7.596 142.803 7.562 142.169 7.562C141.375 7.562 140.571 7.57333 139.755 7.596C138.961 7.61867 138.179 7.65267 137.409 7.698C136.661 7.72067 135.935 7.766 135.233 7.834V6.712C135.233 6.05467 135.357 5.556 135.607 5.216C135.856 4.876 136.241 4.66067 136.763 4.57C137.329 4.45667 138.157 4.37733 139.245 4.332C140.355 4.28667 141.568 4.27533 142.883 4.298C144.56 4.298 145.943 4.37733 147.031 4.536C148.141 4.69467 149.003 4.98933 149.615 5.42C150.227 5.85067 150.646 6.48533 150.873 7.324C151.122 8.14 151.247 9.21667 151.247 10.554V17.252C150.793 17.5467 149.773 17.7733 148.187 17.932C146.623 18.068 144.673 18.136 142.339 18.136ZM142.305 15.688C142.758 15.688 143.177 15.6767 143.563 15.654C143.948 15.6313 144.288 15.5973 144.583 15.552C144.9 15.5067 145.161 15.45 145.365 15.382V12.016C145.138 11.9707 144.809 11.9367 144.379 11.914C143.971 11.8687 143.574 11.8347 143.189 11.812C142.803 11.7893 142.52 11.778 142.339 11.778C141.953 11.778 141.636 11.8233 141.387 11.914C141.137 12.0047 140.956 12.186 140.843 12.458C140.752 12.73 140.707 13.138 140.707 13.682C140.707 14.1807 140.752 14.5773 140.843 14.872C140.933 15.1667 141.092 15.382 141.319 15.518C141.545 15.6313 141.874 15.688 142.305 15.688ZM160.418 18.102C159.828 18.102 159.216 18.0907 158.582 18.068C157.947 18.0453 157.324 18.0113 156.712 17.966C156.122 17.898 155.578 17.8073 155.08 17.694C154.604 17.5807 154.207 17.4447 153.89 17.286C153.595 17.1273 153.368 16.7987 153.21 16.3C153.051 15.8013 152.972 15.0193 152.972 13.954C153.765 14.1807 154.547 14.3733 155.318 14.532C156.088 14.6907 156.836 14.804 157.562 14.872C158.31 14.94 159.012 14.974 159.67 14.974C159.987 14.974 160.384 14.974 160.86 14.974C161.336 14.9513 161.8 14.9173 162.254 14.872C162.707 14.804 163.092 14.6793 163.41 14.498C163.727 14.294 163.886 14.022 163.886 13.682C163.886 13.3193 163.784 13.0813 163.58 12.968C163.398 12.832 163.149 12.764 162.832 12.764H158.786C157.675 12.764 156.7 12.7073 155.862 12.594C155.023 12.4807 154.366 12.1633 153.89 11.642C153.436 11.1207 153.21 10.2253 153.21 8.956C153.21 7.57333 153.561 6.55333 154.264 5.896C154.966 5.216 155.975 4.774 157.29 4.57C158.604 4.34333 160.191 4.23 162.05 4.23C162.73 4.23 163.512 4.24133 164.396 4.264C165.302 4.264 166.073 4.30933 166.708 4.4C167.501 4.49067 168.113 4.61533 168.544 4.774C168.997 4.91 169.314 5.15933 169.496 5.522C169.677 5.88467 169.768 6.44 169.768 7.188V8.242C169.654 8.01533 169.303 7.84533 168.714 7.732C168.124 7.61867 167.41 7.53933 166.572 7.494C165.733 7.44867 164.849 7.426 163.92 7.426C163.013 7.426 162.163 7.426 161.37 7.426C160.962 7.426 160.588 7.44867 160.248 7.494C159.93 7.53933 159.681 7.64133 159.5 7.8C159.318 7.95867 159.228 8.21933 159.228 8.582C159.228 8.854 159.284 9.04667 159.398 9.16C159.511 9.27333 159.67 9.35267 159.874 9.398C160.078 9.42067 160.304 9.432 160.554 9.432H165.178C166.175 9.432 167.036 9.52267 167.762 9.704C168.51 9.88533 169.076 10.2593 169.462 10.826C169.87 11.3927 170.074 12.288 170.074 13.512C170.074 14.9173 169.666 15.9487 168.85 16.606C168.034 17.2407 166.9 17.6487 165.45 17.83C164.022 18.0113 162.344 18.102 160.418 18.102ZM179.899 18.17C178.222 18.17 176.839 18.0793 175.751 17.898C174.686 17.7167 173.847 17.3993 173.235 16.946C172.646 16.47 172.227 15.8013 171.977 14.94C171.728 14.0787 171.603 12.9793 171.603 11.642C171.603 9.82867 171.864 8.40067 172.385 7.358C172.907 6.29267 173.813 5.53333 175.105 5.08C176.42 4.604 178.245 4.366 180.579 4.366C182.415 4.366 183.866 4.54733 184.931 4.91C186.019 5.27267 186.79 5.828 187.243 6.576C187.719 7.324 187.957 8.28733 187.957 9.466V12.356H178.573C178.573 11.7893 178.687 11.3247 178.913 10.962C179.163 10.5767 179.627 10.384 180.307 10.384H182.551V9.738C182.529 8.99 182.37 8.42333 182.075 8.038C181.803 7.65267 181.225 7.46 180.341 7.46C179.616 7.46 179.061 7.57333 178.675 7.8C178.313 8.004 178.063 8.40067 177.927 8.99C177.791 9.55667 177.723 10.3953 177.723 11.506C177.723 12.458 177.814 13.172 177.995 13.648C178.177 14.1013 178.517 14.4073 179.015 14.566C179.537 14.702 180.285 14.77 181.259 14.77C181.645 14.77 182.177 14.7587 182.857 14.736C183.56 14.7133 184.274 14.702 184.999 14.702C185.747 14.6793 186.405 14.6567 186.971 14.634C187.538 14.5887 187.878 14.5547 187.991 14.532V15.246C187.991 15.586 187.935 15.9713 187.821 16.402C187.731 16.81 187.561 17.1273 187.311 17.354C186.926 17.7167 186.144 17.9433 184.965 18.034C183.787 18.1247 182.098 18.17 179.899 18.17Z" fill="#00544E"/>
</svg>
