<svg width="36" height="36" viewBox="0 0 36 36" fill="none" xmlns="http://www.w3.org/2000/svg">
<path fill-rule="evenodd" clip-rule="evenodd" d="M2.13164 0.579893C1.52793 0.769587 0.924347 1.30945 0.648001 1.90693L0.5 2.22692V15.3659V28.5049L0.681354 28.8914C0.912294 29.3836 1.33281 29.8038 1.82537 30.0345L2.21218 30.2157L10.0021 30.2337L17.792 30.2517L17.9917 30.6443C18.67 31.9772 20.1502 33.4872 21.5391 34.2633C24.7284 36.0455 28.4417 35.894 31.49 33.8573C32.156 33.4123 33.427 32.1401 33.8765 31.4685C34.586 30.4086 35.0735 29.2656 35.3381 28.0419C35.5409 27.1043 35.5558 25.3093 35.3681 24.4332C34.9484 22.4736 34.1173 20.9126 32.785 19.5813C30.9354 17.7333 28.4422 16.752 25.8574 16.8549L24.9842 16.8897L24.9835 11.0639L24.9829 5.23794L24.8199 4.89578C24.6955 4.63471 24.2047 4.10539 22.7488 2.66222C21.6994 1.62191 20.7329 0.713473 20.601 0.643467C20.3712 0.521383 19.992 0.515567 11.3895 0.503043C4.14407 0.492505 2.36258 0.507286 2.13164 0.579893ZM19.791 2.85992C19.8123 3.98515 19.8261 4.09725 19.9777 4.38254C20.2333 4.86348 20.447 5.11011 20.8092 5.34237C21.3127 5.66517 21.7331 5.74947 22.844 5.75036L23.8199 5.75119V11.4571V17.1632L23.4958 17.2447C23.0124 17.3663 22.0682 17.768 21.5256 18.083C17.8787 20.1995 16.1033 24.3946 17.1308 28.4674L17.2871 29.0866H9.91454H2.54195L2.24369 28.929C2.03987 28.8213 1.89557 28.6771 1.78777 28.4734L1.63004 28.1754V15.3938C1.63004 6.52947 1.65237 2.55314 1.70291 2.41956C1.79914 2.16506 2.09391 1.85609 2.34916 1.74222C2.51716 1.66728 4.12298 1.65011 11.1614 1.64792L19.7681 1.64525L19.791 2.85992ZM22.8819 4.57867C22.8162 4.59242 22.5245 4.58989 22.2336 4.57305C21.6219 4.53768 21.3156 4.37535 21.0841 3.9638C20.9717 3.76398 20.9435 3.59221 20.9435 3.10806V2.50236L21.9724 3.52803C22.7234 4.27654 22.969 4.5604 22.8819 4.57867ZM10.6916 4.05249L10.0631 4.68043L9.78743 4.43161C9.30679 3.99768 9.04578 3.9597 6.71618 3.98447L4.67773 4.00616L4.31789 4.20537C3.93724 4.41614 3.6735 4.7078 3.50995 5.09889C3.37962 5.41053 3.36462 9.37953 3.49214 9.80484C3.60802 10.1914 4.09846 10.7101 4.4913 10.8616C4.77923 10.9726 5.04783 10.9863 6.93781 10.9863C9.28117 10.9863 9.30014 10.9833 9.8062 10.5394C9.94694 10.4159 10.1296 10.1888 10.2121 10.0347C10.3544 9.76892 10.3632 9.65764 10.3824 7.87259L10.4026 5.9907L11.2516 5.13529C11.7395 4.64375 12.1193 4.20297 12.1444 4.09909C12.1946 3.89174 12.0362 3.53234 11.8658 3.46698C11.8049 3.44365 11.6571 3.42449 11.5375 3.42449C11.3547 3.42449 11.22 3.52453 10.6916 4.05249ZM8.88299 5.22186C9.28275 5.4273 9.25611 5.48553 8.3444 6.39869L7.49215 7.25232L7.03328 6.8097C6.59558 6.38747 6.49833 6.33628 6.18445 6.36297C5.97748 6.38056 5.73928 6.68508 5.73928 6.93205C5.73928 7.11443 5.85201 7.25984 6.47894 7.88627C7.16334 8.57012 7.23833 8.62534 7.48221 8.62534C7.72534 8.62534 7.80383 8.56834 8.48898 7.89366L9.23213 7.16192V8.30734C9.23213 9.4236 9.22796 9.45693 9.06859 9.61617C8.97859 9.70609 8.80142 9.79903 8.67478 9.82277C8.54815 9.84652 7.64823 9.85623 6.67495 9.8444L4.90538 9.82291L4.74019 9.63089L4.575 9.43887V7.46425V5.48964L4.78573 5.31247L4.9964 5.13529L6.85747 5.13632C8.19825 5.13701 8.76443 5.16096 8.88299 5.22186ZM13.5521 5.31247C13.2798 5.54144 13.262 5.88333 13.5095 6.13064L13.6776 6.29864H15.9631H18.2486L18.3975 6.14029C18.4844 6.04791 18.5464 5.89339 18.5464 5.76946C18.5464 5.1496 18.4871 5.13529 15.9183 5.13529H13.7628L13.5521 5.31247ZM13.5095 8.24589C13.3025 8.45269 13.2856 8.81504 13.4722 9.04545L13.6031 9.20702L15.5976 9.22707L17.5922 9.24719L17.7953 9.04415C18.0123 8.82742 18.0443 8.66387 17.9225 8.39657C17.7872 8.09992 17.6262 8.07788 15.5951 8.07788H13.6776L13.5095 8.24589ZM11.321 11.6468C11.2457 11.688 10.9321 11.9689 10.6242 12.2711L10.0643 12.8206L9.8366 12.6285C9.32165 12.1942 9.27268 12.1868 6.90357 12.1868C4.8797 12.1868 4.72718 12.1955 4.43802 12.3262C4.02415 12.5134 3.76849 12.7649 3.57392 13.1761C3.41448 13.5132 3.41201 13.5503 3.4114 15.6776L3.41071 17.8368L3.58809 18.1925C3.68569 18.3882 3.87656 18.6397 4.0123 18.7515C4.47987 19.1366 4.67143 19.1639 6.90357 19.1639C9.19419 19.1639 9.37657 19.1346 9.83147 18.6934C10.3466 18.194 10.3598 18.1299 10.3818 16.016L10.4013 14.1341L11.2498 13.2787C11.7166 12.8083 12.107 12.3617 12.1174 12.2865C12.1535 12.0262 12.0396 11.7765 11.8371 11.6718C11.6012 11.5499 11.5069 11.5454 11.321 11.6468ZM8.92024 13.3895C8.98085 13.4127 9.06366 13.4937 9.10427 13.5694C9.16954 13.6914 9.08146 13.8039 8.33646 14.5501L7.49482 15.393L7.02671 14.9518C6.64311 14.5902 6.51716 14.5105 6.3295 14.5105C6.01611 14.5105 5.73928 14.7891 5.73928 15.1046C5.73928 15.306 5.82571 15.4272 6.37238 15.9918C7.01986 16.6605 7.26121 16.8372 7.52707 16.8372C7.62734 16.8372 7.93868 16.5802 8.45508 16.0711L9.23213 15.3051V16.4528V17.6005L9.02893 17.8035L8.8258 18.0065L6.83124 17.9864L4.83669 17.9664L4.70581 17.8048C4.58376 17.6541 4.575 17.5103 4.575 15.6632V13.6831L4.74313 13.5152L4.9112 13.3472H6.86062C7.93279 13.3472 8.85963 13.3662 8.92024 13.3895ZM13.5095 13.5152C13.2006 13.8238 13.3503 14.3743 13.7713 14.4779C13.855 14.4984 15.6871 14.5065 17.8426 14.4958C21.659 14.4768 21.7652 14.4727 21.8987 14.3392C22.1333 14.1048 22.1474 13.8154 21.9365 13.5649L21.7531 13.3472H17.7154H13.6776L13.5095 13.5152ZM13.7523 16.2677C13.3517 16.4218 13.2222 16.8727 13.4833 17.2044L13.6253 17.3847H15.6438H17.6623L17.8304 17.2167C18.0481 16.9992 18.0492 16.6985 17.8333 16.4476L17.6681 16.2555L15.7616 16.2418C14.713 16.2343 13.8088 16.2459 13.7523 16.2677ZM27.3816 18.0995C29.1743 18.3695 30.7606 19.1858 32.02 20.4866C33.1815 21.6863 33.8522 22.9441 34.2048 24.584C34.3744 25.3725 34.373 26.9897 34.2021 27.7864C33.5068 31.0284 31.0368 33.4964 27.7922 34.1912C26.9949 34.3619 25.3764 34.3633 24.5873 34.1938C22.9012 33.8319 21.6294 33.1423 20.4213 31.9351C20.0398 31.554 19.5681 30.997 19.3729 30.6972C17.797 28.2765 17.5728 25.3544 18.7613 22.7265C19.4781 21.1413 21.1474 19.4764 22.7412 18.7568C24.1975 18.0993 25.8381 17.8669 27.3816 18.0995ZM10.6887 20.4107L10.0573 21.0416L9.83304 20.8289C9.3424 20.3637 9.34226 20.3636 7.0615 20.3407C5.74442 20.3275 4.89511 20.3464 4.72218 20.393C4.25879 20.5176 3.81335 20.8686 3.60159 21.276L3.41071 21.6431V23.7659C3.41071 25.1949 3.43701 25.9764 3.49125 26.1572C3.59953 26.5183 4.02463 26.9865 4.42165 27.1819C4.74101 27.339 4.78094 27.3416 6.90357 27.3408C8.79046 27.3401 9.09208 27.3254 9.30946 27.2235C9.67484 27.0525 9.96399 26.7866 10.1752 26.4277L10.3622 26.1098L10.3831 24.2279L10.4041 22.346L11.2563 21.4847C11.7251 21.011 12.1122 20.5645 12.1165 20.4925C12.1435 20.0446 11.9387 19.7798 11.5654 19.7798C11.3474 19.7798 11.2499 19.85 10.6887 20.4107ZM8.98318 21.6325C9.08242 21.7104 9.16365 21.8101 9.16365 21.8539C9.16365 21.8977 8.78676 22.311 8.32605 22.7724L7.48845 23.6113L7.02636 23.1532C6.62564 22.7558 6.53113 22.695 6.31416 22.695C6.00213 22.695 5.73928 22.9658 5.73928 23.2874C5.73928 23.4697 5.85201 23.6152 6.47894 24.2416C7.16334 24.9254 7.23833 24.9807 7.48221 24.9807C7.72534 24.9807 7.80383 24.9237 8.48898 24.249L9.23213 23.5172V24.6627C9.23213 25.7875 9.22912 25.8111 9.064 25.976L8.89593 26.144H6.8774H4.85888L4.71697 25.9637C4.58075 25.7907 4.57506 25.7043 4.57719 23.8252C4.57876 22.3933 4.60177 21.838 4.6628 21.7593C4.85504 21.5114 4.99475 21.4948 6.91144 21.4927C8.72279 21.4907 8.81039 21.4966 8.98318 21.6325ZM13.6496 21.5733C13.2984 21.7745 13.2318 22.2085 13.5095 22.486C13.674 22.6504 13.7009 22.654 14.7796 22.654C15.8584 22.654 15.8852 22.6504 16.0497 22.486C16.3269 22.2091 16.2716 21.7626 15.939 21.5907C15.6954 21.4649 13.8631 21.4509 13.6496 21.5733ZM29.4369 21.5787C29.3257 21.6349 28.4219 22.9759 26.8343 25.4401C25.4966 27.5165 24.3786 29.2381 24.3499 29.2658C24.3212 29.2936 23.979 29.0028 23.5893 28.6198C22.8045 27.848 22.6794 27.7969 22.3185 28.1004C22.1554 28.2375 22.1078 28.333 22.1078 28.5227C22.1078 28.7457 22.1922 28.853 23.0495 29.7197C23.5674 30.2433 24.0792 30.7179 24.1869 30.7743C24.423 30.8981 24.6664 30.8491 24.8462 30.6417C24.9187 30.558 26.166 28.6425 27.6179 26.385C30.4964 21.9097 30.4475 22.0045 30.047 21.6678C29.8122 21.4704 29.6872 21.4521 29.4369 21.5787ZM13.5095 24.6012C13.344 24.7665 13.2925 25.0475 13.3839 25.2855C13.4708 25.5118 13.7865 25.5966 14.5418 25.5966C15.2548 25.5966 15.2736 25.5925 15.4698 25.3965C15.5904 25.2759 15.6699 25.1244 15.6699 25.0149C15.6699 24.9054 15.5904 24.7538 15.4698 24.6332C15.2714 24.4351 15.262 24.4332 14.4735 24.4332C13.7198 24.4332 13.6687 24.4421 13.5095 24.6012Z" fill="#00544E"/>
</svg>
