<svg width="36" height="36" viewBox="0 0 36 36" fill="none" xmlns="http://www.w3.org/2000/svg">
<path fill-rule="evenodd" clip-rule="evenodd" d="M15.7246 0.573076C15.3175 0.702507 14.9152 1.0932 14.803 1.46808C14.7462 1.65788 14.7191 2.31927 14.719 3.51981L14.7189 5.29146L14.413 5.48496C13.7795 5.88564 13.2359 6.68277 13.071 7.45278C13.0289 7.64943 13.0071 8.07708 13.0227 8.40308C13.0469 8.91075 13.0871 9.07194 13.3026 9.52635L13.5543 10.0569L13.2815 10.6003L13.0086 11.1436H7.18759H1.36655L1.07656 11.3137C0.883234 11.4272 0.738855 11.5827 0.643285 11.7803L0.5 12.0766L0.501504 23.2973C0.50294 34.1722 0.506973 34.5267 0.632826 34.8043C0.714586 34.9844 0.870587 35.1621 1.05359 35.2834L1.34454 35.4761L16.6625 35.4957C26.9256 35.5088 32.1584 35.4919 32.5198 35.4446C33.9614 35.2555 35.1655 34.1254 35.4316 32.7119C35.4769 32.4711 35.5007 28.2172 35.5 20.46C35.4991 10.2247 35.485 8.51746 35.3981 8.1484C35.0874 6.82869 33.9999 5.73985 32.6818 5.42877C31.6406 5.18298 30.9692 5.37887 30.6401 6.02452C30.5203 6.25963 30.5106 6.45908 30.5106 8.71102V11.1436H24.8675H19.2242L18.9805 10.6297L18.7368 10.1157L18.98 9.62012C19.6339 8.28775 19.3733 6.81267 18.3078 5.81473C18.0609 5.58339 17.8291 5.39413 17.7929 5.39413C17.7523 5.39413 17.7271 4.67264 17.7271 3.50968C17.7271 1.49333 17.7023 1.31866 17.3649 0.95651C16.9919 0.55617 16.2922 0.392584 15.7246 0.573076ZM16.5649 1.62961C16.6939 1.75876 16.7016 1.85774 16.7016 3.37498V4.98346H16.2231H15.7446V3.37498C15.7446 1.85774 15.7523 1.75876 15.8813 1.62961C15.9573 1.55356 16.1092 1.49272 16.2231 1.49272C16.3371 1.49272 16.489 1.55356 16.5649 1.62961ZM16.9283 6.11911C17.3643 6.26785 17.8832 6.75217 18.1167 7.22828C18.2785 7.55805 18.3079 7.70357 18.307 8.16619C18.3059 8.66373 18.2836 8.75442 18.0623 9.15866C17.3462 10.4672 15.6822 10.7107 14.6243 9.66174C13.5889 8.63505 13.8887 6.88119 15.2129 6.2187C15.561 6.04451 15.7104 6.01015 16.1193 6.01015C16.3886 6.01015 16.7526 6.05915 16.9283 6.11911ZM32.6397 6.4881C33.4488 6.74094 34.0914 7.38009 34.337 8.17626C34.4737 8.61924 34.4756 8.77194 34.4756 19.1243V29.6231L34.1509 29.3736C33.5617 28.921 33.0438 28.7399 32.1513 28.6742L31.5702 28.6315L31.5527 17.5775C31.543 11.4978 31.5497 6.48502 31.5676 6.43793C31.6167 6.30885 32.1452 6.33362 32.6397 6.4881ZM14.7459 11.0076C14.9674 11.12 15.1904 11.212 15.2415 11.212C15.2926 11.212 15.3344 11.2389 15.3344 11.2717C15.3344 11.338 9.33126 23.2633 9.25784 23.3429C9.23234 23.3706 9.1017 23.0603 8.96744 22.6535L8.72339 21.9138L11.5219 16.3576C13.0611 13.3017 14.3255 10.8018 14.3318 10.8023C14.338 10.8027 14.5244 10.8951 14.7459 11.0076ZM20.639 16.4662L23.3118 22.0607L23.0773 22.7452C22.9484 23.1216 22.8212 23.4523 22.7948 23.4799C22.7543 23.5224 17.0218 11.6163 16.9617 11.3647C16.9497 11.3143 17.1088 11.2085 17.3403 11.1131C17.56 11.0225 17.7574 10.9307 17.7789 10.9091C17.8005 10.8875 17.8515 10.8702 17.8923 10.8707C17.933 10.8712 19.1691 13.3892 20.639 16.4662ZM17.0346 13.9443C17.4907 14.9011 17.8638 15.7145 17.8638 15.7518C17.8638 15.8141 14.3885 15.7634 14.3253 15.7002C14.3119 15.6868 14.7049 14.8677 15.1984 13.8799C15.692 12.8921 16.1205 12.1111 16.1506 12.1442C16.1809 12.1774 16.5786 12.9874 17.0346 13.9443ZM12.4632 12.2029C12.4632 12.2209 12.0595 13.0241 11.5661 13.9878L10.6688 15.7399L9.72748 15.7176C8.87926 15.6974 8.77186 15.7081 8.64218 15.8256C8.54538 15.9133 8.49828 16.0387 8.49828 16.2086C8.49828 16.6062 8.64108 16.6855 9.44618 16.7346C9.82722 16.7578 10.139 16.7909 10.139 16.8082C10.139 16.8254 9.58509 17.9373 8.9081 19.279C8.23112 20.6207 7.67739 21.7906 7.6776 21.8788C7.67828 22.1887 8.42397 24.3242 8.58393 24.4743C8.90968 24.7798 9.34186 24.8183 9.71299 24.5749C9.81587 24.5074 10.5309 23.1522 11.787 20.6441C12.8413 18.5389 13.7442 16.8009 13.7934 16.782C13.8427 16.7631 14.9046 16.7727 16.1533 16.8032L18.4237 16.8588L20.2208 20.6234C21.2093 22.6938 22.0716 24.4604 22.137 24.5489C22.2974 24.7662 22.6892 24.9218 22.9507 24.8723C23.3849 24.7899 23.5097 24.6014 23.9475 23.3675C24.1733 22.731 24.3581 22.1366 24.3581 22.0468C24.3581 21.9568 23.8323 20.7835 23.1895 19.4394C22.5469 18.0954 22.0081 16.9649 21.9925 16.9273C21.9744 16.8842 22.2319 16.8588 22.6884 16.8588C23.3673 16.8588 23.4211 16.8486 23.5437 16.6972C23.7133 16.4878 23.7106 16.1763 23.5378 16.0033C23.4303 15.8957 23.3095 15.8663 22.9738 15.8659C22.7388 15.8657 22.2953 15.846 21.9882 15.822L21.4299 15.7785L21.2063 15.292C21.0834 15.0244 20.6978 14.2126 20.3494 13.4879L19.716 12.1703H25.1134H30.5106V20.4544C30.5106 29.5555 30.4862 29.0359 30.9306 29.3653C31.248 29.6004 31.3459 29.6287 32.0622 29.692C33.1358 29.7868 33.8047 30.2082 34.2186 31.0504C34.4174 31.4549 34.4413 31.5667 34.4411 32.0868C34.4407 32.5868 34.4133 32.7258 34.2484 33.0626C33.8951 33.7844 33.262 34.2692 32.4787 34.4179C32.1 34.4899 1.81958 34.5136 1.63357 34.4421C1.53554 34.4045 1.52542 33.3618 1.52542 23.3311C1.52542 17.2428 1.54593 12.241 1.57102 12.2159C1.62215 12.1647 12.4632 12.1518 12.4632 12.2029ZM4.24367 26.1719C3.85716 26.3819 3.84971 26.4398 3.84971 29.234C3.84971 31.7868 3.85012 31.7947 4.00591 32.0266C4.09512 32.1595 4.26363 32.2942 4.39899 32.3409C4.74162 32.459 27.2944 32.459 27.6371 32.3409C27.7724 32.2942 27.9409 32.1595 28.0301 32.0266C28.1859 31.7947 28.1863 31.7868 28.1863 29.234C28.1863 27.0797 28.1699 26.6422 28.0826 26.4732C27.8565 26.0354 28.7231 26.0645 16.0044 26.0675C5.90068 26.0699 4.40699 26.0832 4.24367 26.1719ZM6.17399 27.6176C6.17399 28.2417 6.3101 28.4604 6.6986 28.4604C7.0873 28.4604 7.19941 28.2766 7.19941 27.6391V27.0915H7.84885H8.49828V27.9378C8.49828 28.6904 8.514 28.8041 8.63999 28.9645C8.81752 29.1905 9.1834 29.2118 9.38698 29.008C9.50968 28.8851 9.5237 28.7799 9.5237 27.9813V27.0915H10.1731H10.8226V27.6079C10.8226 28.065 10.8418 28.1437 10.9904 28.2924C11.1975 28.4998 11.5212 28.5138 11.7113 28.3235C11.8252 28.2094 11.848 28.0954 11.848 27.6391V27.0915H12.492H13.136L13.1585 27.9875C13.1797 28.8331 13.1901 28.8909 13.3424 29.0142C13.5379 29.1725 13.8149 29.1824 14.0203 29.0383C14.1645 28.9372 14.1723 28.8849 14.1723 28.0116V27.0915H14.813H15.4536L15.4859 27.6504C15.5134 28.1264 15.5411 28.2278 15.6731 28.3348C15.7584 28.4039 15.9136 28.4604 16.018 28.4604C16.1225 28.4604 16.2777 28.4039 16.3629 28.3348C16.4949 28.2278 16.5227 28.1264 16.5501 27.6504L16.5825 27.0915H17.2231H17.8638V27.9813C17.8638 28.7799 17.8778 28.8851 18.0005 29.008C18.1847 29.1924 18.5548 29.1888 18.7248 29.001C18.8357 28.8784 18.8584 28.7267 18.8775 27.9743L18.9001 27.0915H19.544H20.1881V27.6391C20.1881 28.2803 20.2994 28.4604 20.6958 28.4604C21.0688 28.4604 21.2135 28.2186 21.2135 27.5956V27.0915H21.8629H22.5124V27.9813C22.5124 28.7799 22.5264 28.8851 22.6491 29.008C22.8527 29.2118 23.2185 29.1905 23.3961 28.9645C23.5221 28.8041 23.5378 28.6904 23.5378 27.9378V27.0915H24.1872H24.8366V27.6176C24.8366 28.2417 24.9727 28.4604 25.3612 28.4604C25.7499 28.4604 25.8621 28.2766 25.8621 27.6391V27.0915H26.5115H27.1609V29.2475V31.4036H16.018H4.87513V29.2475V27.0915H5.52456H6.17399V27.6176Z" fill="#00544E"/>
</svg>
