<svg width="36" height="36" viewBox="0 0 36 36" fill="none" xmlns="http://www.w3.org/2000/svg">
<path fill-rule="evenodd" clip-rule="evenodd" d="M6.17147 0.624436C5.91084 0.713711 5.46745 1.12582 3.2879 3.30414C0.947093 5.64364 0.702061 5.90982 0.600353 6.2241C0.498849 6.53783 0.490088 7.34261 0.506584 14.878L0.52479 23.1861L0.672767 23.4598C0.847233 23.7823 1.18282 24.1123 1.51724 24.2901C1.7405 24.4089 1.99744 24.4188 5.30175 24.4369L8.84663 24.4564L9.04909 24.2541C9.16038 24.1428 9.25148 23.9863 9.25148 23.9063C9.25148 23.7908 9.1022 23.4152 9.02726 23.3422C9.01884 23.334 7.43072 23.3109 5.49818 23.2909L1.98437 23.2545L1.81928 23.0626L1.65413 22.8706V14.9046V6.93865H3.48967C5.67484 6.93865 5.88784 6.89911 6.38632 6.40087C6.88487 5.90257 6.92436 5.68989 6.92436 3.50431V1.66817L11.4393 1.68671C15.6675 1.70409 15.962 1.71298 16.0764 1.82736C16.1906 1.94154 16.2009 2.2537 16.2328 6.60494L16.2671 11.2604L16.4591 11.4255C16.71 11.6412 17.0108 11.6401 17.2284 11.4226L17.3964 11.2547L17.3957 6.54837L17.395 1.84207L17.2334 1.49516C17.0446 1.08983 16.6736 0.759752 16.2416 0.612601C15.7799 0.455325 6.63354 0.466066 6.17147 0.624436ZM24.4458 0.571965C24.0395 0.695514 23.7375 0.967856 21.355 3.35942C19.5892 5.13179 18.8133 5.95682 18.7369 6.14317C18.6449 6.36783 18.6284 6.77604 18.6284 8.83143V11.2547L18.7964 11.4226C19.0139 11.6401 19.3147 11.6412 19.5657 11.4256L19.7577 11.2605L19.7776 9.10343L19.7974 6.94631L21.7625 6.92538L23.7275 6.90444L24.0826 6.71734C24.2779 6.61438 24.5157 6.42803 24.6109 6.30318C24.9807 5.81856 24.9937 5.72744 24.9937 3.62293V1.67105H29.4821H33.9705L34.1706 1.87101L34.3707 2.07097V12.4708V22.8706L34.2055 23.0626L34.0404 23.2545L30.5266 23.2909C28.5941 23.3109 27.006 23.334 26.9975 23.3422C26.9226 23.4152 26.7733 23.7908 26.7733 23.9063C26.7733 23.9863 26.8644 24.1428 26.9757 24.2541L27.1782 24.4564L30.723 24.4369C34.0273 24.4188 34.2843 24.4089 34.5076 24.2901C34.842 24.1123 35.1776 23.7823 35.352 23.4598L35.5 23.1861V12.4799V1.77366L35.3489 1.49126C35.1379 1.09715 34.6386 0.676838 34.2714 0.584484C33.9218 0.496508 24.7324 0.48481 24.4458 0.571965ZM5.74753 3.99522C5.71981 5.89361 5.8788 5.73469 3.97946 5.7624C3.18989 5.77396 2.54391 5.75877 2.54391 5.72874C2.54391 5.65664 5.64068 2.56038 5.71276 2.56038C5.74342 2.56038 5.75909 3.20604 5.74753 3.99522ZM23.7561 5.4774C23.6159 5.74106 23.4076 5.77567 21.9624 5.77567H20.5802L22.1881 4.16741L23.796 2.55908L23.8149 3.94508C23.8278 4.88374 23.8088 5.37821 23.7561 5.4774ZM3.87858 8.69789C3.43376 8.80543 3.27962 9.36968 3.61027 9.68027L3.78686 9.84609L8.79496 9.86682C12.3082 9.88139 13.8805 9.86497 14.0625 9.81196C14.6032 9.65434 14.6509 8.95826 14.1357 8.74311C13.9505 8.66581 13.0227 8.65035 8.96278 8.65685C6.24177 8.66122 3.95387 8.67969 3.87858 8.69789ZM21.8741 8.74509C21.3742 8.96483 21.4313 9.65721 21.9623 9.81196C22.1443 9.86497 23.7166 9.88139 27.2298 9.86682L32.2379 9.84609L32.4145 9.68027C32.6578 9.45171 32.6578 9.0775 32.4145 8.84894L32.2379 8.68312L27.1614 8.66779C23.0162 8.65527 22.0462 8.66943 21.8741 8.74509ZM3.74169 11.6696C3.38776 11.863 3.32034 12.3044 3.60172 12.5856L3.76968 12.7535H8.96853H14.1673L14.3506 12.5359C14.573 12.2717 14.5464 11.9802 14.2784 11.7445L14.1034 11.5906L8.99098 11.5926C5.42283 11.5941 3.83724 11.6173 3.74169 11.6696ZM21.7464 11.7445C21.4784 11.9802 21.4518 12.2717 21.6742 12.5359L21.8575 12.7535H27.0563H32.2551L32.4231 12.5856C32.5884 12.4204 32.64 12.1395 32.5486 11.9015C32.4294 11.591 32.4224 11.5906 27.0201 11.5906H21.9214L21.7464 11.7445ZM17.0199 12.8263C13.8427 13.2579 11.2898 15.3508 10.2662 18.3632C9.73217 19.9351 9.72614 21.8947 10.2506 23.4628C10.6555 24.6734 11.3122 25.7485 12.1946 26.6453C13.0724 27.5374 14.1138 28.2108 15.2543 28.6239L15.679 28.7776L15.6992 31.2837L15.7195 33.7897L15.9009 34.1766C16.1265 34.6575 16.5618 35.0899 17.0542 35.3223C17.3674 35.4702 17.5283 35.5 18.0124 35.5C18.4988 35.5 18.6576 35.4703 18.9812 35.3186C19.4623 35.0932 19.895 34.6581 20.1275 34.166L20.3053 33.7897L20.3256 31.2837L20.3457 28.7776L20.7704 28.6249C23.4974 27.6441 25.5148 25.2434 26.0516 22.3406C26.1852 21.6175 26.1877 20.2647 26.0567 19.518C25.4781 16.2202 22.8543 13.5521 19.5739 12.9254C18.8571 12.7885 17.645 12.7414 17.0199 12.8263ZM18.4726 13.9591L18.6248 14L18.6437 18.7299L18.6626 23.4598L18.8527 23.8654C19.1094 24.4132 19.4368 24.7965 19.9281 25.1245C20.4918 25.5007 21.035 25.6147 22.2643 25.6147H23.2381L23.0721 25.7916C22.7436 26.142 21.9809 26.7234 21.4621 27.0188C19.315 28.2418 16.7098 28.2418 14.5627 27.0188C14.0439 26.7234 13.2812 26.142 12.9527 25.7916L12.7867 25.6147H13.7475C14.276 25.6147 14.8743 25.5835 15.0771 25.5453C15.9465 25.3818 16.7501 24.7512 17.1412 23.926L17.3622 23.4598L17.3811 18.727C17.3987 14.314 17.408 13.9922 17.518 13.9633C17.6984 13.916 18.3016 13.9134 18.4726 13.9591ZM16.2328 18.6632V23.1363L16.0421 23.5033C15.8343 23.9031 15.3919 24.2569 14.9445 24.381C14.8061 24.4195 14.0736 24.4511 13.3168 24.4513L11.9407 24.4517L11.6629 23.8531C11.5101 23.5239 11.3346 23.0544 11.2729 22.8099C11.2112 22.5653 11.1449 22.3113 11.1255 22.2455C11.0927 22.1341 11.1922 22.1257 12.5493 22.1247C14.1333 22.1236 14.2813 22.0951 14.4423 21.7596C14.5535 21.5277 14.5026 21.2877 14.3026 21.1015C14.162 20.9705 14.0662 20.9628 12.5829 20.9628H11.0121L11.047 20.3642C11.0662 20.035 11.1508 19.5117 11.2351 19.2012L11.3883 18.6368H12.6492C14.0751 18.6368 14.3044 18.5857 14.4498 18.2348C14.5564 17.9776 14.4531 17.6553 14.2215 17.5226C14.134 17.4724 13.662 17.4261 13.0283 17.4054L11.9798 17.3712L12.3184 16.8924C12.9226 16.0379 13.9118 15.1865 14.8639 14.7015C15.2119 14.5242 16.0627 14.1949 16.1815 14.1916C16.2097 14.1908 16.2328 16.2031 16.2328 18.6632ZM20.3893 14.3645C21.7378 14.8717 22.9692 15.8202 23.7596 16.9608L24.0441 17.3712L22.9961 17.4054C22.3627 17.4261 21.8907 17.4725 21.8033 17.5226C21.5717 17.6553 21.4684 17.9776 21.575 18.2348C21.7204 18.5857 21.9497 18.6368 23.3756 18.6368H24.6365L24.7897 19.2012C24.874 19.5117 24.9586 20.035 24.9778 20.3642L25.0127 20.9628H23.429C21.9434 20.9628 21.8369 20.9711 21.7101 21.0979C21.5222 21.2857 21.4743 21.5341 21.5825 21.7596C21.7435 22.0951 21.8915 22.1236 23.4754 22.1247C24.8326 22.1257 24.9321 22.1341 24.8993 22.2455C24.8799 22.3113 24.8136 22.5653 24.7519 22.8099C24.6902 23.0544 24.5147 23.5239 24.3619 23.8531L24.0841 24.4517L22.708 24.4513C21.9512 24.4511 21.2187 24.4195 21.0803 24.381C20.6329 24.2569 20.1905 23.9031 19.9827 23.5033L19.792 23.1363V18.6632C19.792 15.7964 19.816 14.1902 19.8588 14.1902C19.8956 14.1902 20.1343 14.2686 20.3893 14.3645ZM3.60172 14.7002C3.32472 14.9769 3.37996 15.4233 3.71239 15.5951C4.00034 15.744 9.98528 15.744 10.2732 15.5951C10.6057 15.4233 10.6609 14.9769 10.3839 14.7002L10.2159 14.5322H6.99281H3.76968L3.60172 14.7002ZM25.6409 14.7002C25.3639 14.9769 25.4191 15.4233 25.7516 15.5951C26.0395 15.744 32.0245 15.744 32.3124 15.5951C32.6448 15.4233 32.7001 14.9769 32.4231 14.7002L32.2551 14.5322H29.032H25.8089L25.6409 14.7002ZM3.87858 17.4544C3.43376 17.562 3.27962 18.1262 3.61021 18.4368L3.78672 18.6026L6.15977 18.6214C8.31968 18.6385 8.55424 18.6293 8.77162 18.5188C9.22287 18.2894 9.22287 17.7513 8.77162 17.5253C8.55766 17.4181 8.29764 17.4065 6.27414 17.4135C5.03187 17.4178 3.95387 17.4362 3.87858 17.4544ZM27.2532 17.5235C26.9716 17.6666 26.8533 17.9333 26.9491 18.2093C26.9867 18.3178 27.1154 18.4488 27.2532 18.5188C27.4706 18.6293 27.7051 18.6385 29.865 18.6214L32.2381 18.6026L32.4146 18.4368C32.5418 18.3173 32.5911 18.2011 32.5911 18.0211C32.5911 17.8411 32.5418 17.725 32.4146 17.6055L32.2381 17.4396L29.865 17.4208C27.7051 17.4038 27.4706 17.413 27.2532 17.5235ZM3.74169 20.4246C3.38735 20.6222 3.32041 21.061 3.60172 21.3421L3.76968 21.5101H6.02226C8.19743 21.5101 8.281 21.5052 8.45513 21.3683C8.67949 21.1919 8.70372 20.7886 8.50468 20.5428L8.37395 20.3813L6.12623 20.3648C4.57131 20.3534 3.83642 20.3719 3.74169 20.4246ZM27.6846 20.416C27.3435 20.5533 27.2732 21.1352 27.5697 21.3683C27.7438 21.5052 27.8274 21.5101 30.0025 21.5101H32.2551L32.4231 21.3421C32.5259 21.2394 32.5911 21.0956 32.5911 20.9715C32.5911 20.3623 32.5237 20.3463 29.9765 20.3514C28.7982 20.3538 27.7669 20.3829 27.6846 20.416ZM19.176 31.2436C19.176 33.6534 19.1681 33.7049 18.7427 34.0782C18.1638 34.5862 17.2435 34.3619 16.9413 33.6391C16.8702 33.469 16.8488 32.915 16.8488 31.2436V29.0694H18.0124H19.176V31.2436Z" fill="#00544E"/>
</svg>
