<svg width="36" height="40" viewBox="0 0 36 40" fill="none" xmlns="http://www.w3.org/2000/svg">
<path fill-rule="evenodd" clip-rule="evenodd" d="M3.94733 0.866342C2.38575 1.27248 1.32963 2.25223 0.701502 3.87762L0.539951 4.29559L0.519975 20.8131L0.5 37.3307H9.34809H18.1963L18.6887 37.6297C22.4249 39.8979 26.9988 39.8228 30.6218 37.4337C35.0024 34.5451 36.6981 28.8692 34.6132 24.0726C33.8293 22.2691 32.365 20.4791 30.826 19.4433L30.2754 19.0726V12.1549V5.23729H31.2628H32.2501V5.04496C32.2501 4.64326 31.9978 3.74661 31.7319 3.20321C31.5303 2.79112 31.3009 2.48442 30.8844 2.06992C30.2284 1.41698 29.6494 1.08474 28.787 0.86589C28.2147 0.720717 27.9099 0.717176 16.3449 0.721244C5.01249 0.725237 4.46556 0.731641 3.94733 0.866342ZM5.68201 2.08258C6.52858 2.2609 7.31712 2.80942 7.78992 3.54893C7.97905 3.84462 8.13817 4.32082 8.28506 5.03012L8.32797 5.23729H18.6561H28.9842V11.7916C28.9842 15.3964 28.9633 18.3458 28.9377 18.3458C28.9122 18.3458 28.5789 18.2302 28.1972 18.0889C26.9103 17.6124 26.0971 17.4797 24.465 17.4796C22.8573 17.4795 22.3078 17.5621 20.9597 18.007C19.3513 18.5377 18.0949 19.295 16.8433 20.4882C15.1883 22.0661 14.1573 23.9522 13.6283 26.3692C13.4684 27.1003 13.4942 29.6825 13.6694 30.475C14.0982 32.4146 15.0244 34.2648 16.1932 35.5171C16.4191 35.7591 16.6039 35.978 16.6039 36.0035C16.6039 36.0291 13.2715 36.0499 9.19854 36.0499H1.79317V20.4243C1.79317 5.33101 1.79803 4.78316 1.93626 4.34267C2.13032 3.72423 2.39213 3.30235 2.83934 2.8874C3.63335 2.15075 4.64526 1.86425 5.68201 2.08258ZM28.4935 2.11474C29.2846 2.31906 29.9849 2.8208 30.422 3.49627C30.5502 3.69455 30.6551 3.8792 30.6551 3.9067C30.6551 3.93412 25.8691 3.95657 20.0194 3.95657C9.95791 3.95657 9.38121 3.94949 9.3386 3.82473C9.18548 3.37618 8.8942 2.84084 8.59031 2.44909L8.24025 1.99782H18.1405C26.8431 1.99782 28.0956 2.01198 28.4935 2.11474ZM3.76793 11.0005V14.8813L9.2555 14.8621L14.7431 14.8427V11.0005V7.15837L9.2555 7.13901L3.76793 7.11973V11.0005ZM13.4139 11.0005V13.5996H9.23652H5.05913V11.0005V8.40143H9.23652H13.4139V11.0005ZM16.6799 9.71982V10.3602H21.8826H27.0854V9.71982V9.07946H21.8826H16.6799V9.71982ZM16.7121 12.3443C16.6904 12.4002 16.6829 12.6971 16.6953 13.004L16.7178 13.562H21.8826H27.0474V12.9216V12.2813L21.8994 12.2619C17.6332 12.2458 16.7447 12.2599 16.7121 12.3443ZM3.76793 18.0827V18.7235L9.2555 18.7042L14.7431 18.6849L14.7651 18.0633L14.7872 17.4418H9.27753H3.76793V18.0827ZM26.4018 18.9045C30.1203 19.7045 32.9696 22.4279 33.896 26.0678C34.1815 27.1892 34.2279 28.998 33.9995 30.0962C33.7944 31.0822 33.6195 31.6049 33.1968 32.494C32.5412 33.8734 31.2983 35.3427 30.0475 36.2171C28.9631 36.9751 27.5619 37.5539 26.1739 37.8169C25.2238 37.9969 23.603 37.9825 22.6421 37.7854C20.5327 37.3528 19.0943 36.5881 17.626 35.1188C16.1345 33.6263 15.3155 32.0993 14.9274 30.0871C14.7886 29.3677 14.7694 29.0567 14.7999 28.0304C14.831 26.9876 14.8684 26.6999 15.0721 25.9395C16.0874 22.1491 19.1679 19.4095 23.0979 18.8018C23.7638 18.6988 25.73 18.7599 26.4018 18.9045ZM3.76793 21.2463V21.8867H7.94532H12.1227V21.2463V20.6059H7.94532H3.76793V21.2463ZM26.0791 25.1823L22.5287 28.7039L20.9138 27.1033L19.2989 25.5029L17.5339 27.2548L15.7687 29.0069L19.1297 32.34L22.4908 35.6732L27.807 30.3996L33.1232 25.1261L31.3763 23.3935L29.6295 21.6607L26.0791 25.1823ZM26.8955 29.4957L22.4909 33.8649L20.0791 31.4736C18.7526 30.1583 17.6672 29.0486 17.6672 29.0076C17.6672 28.9666 18.0343 28.568 18.4827 28.1217L19.2983 27.3102L20.9135 28.9111L22.5287 30.5119L26.079 26.9905L29.6292 23.469L30.4646 24.2977L31.3 25.1263L26.8955 29.4957ZM3.76793 24.4858V25.1261H7.94532H12.1227V24.4858V23.8454H7.94532H3.76793V24.4858Z" fill="#00544E"/>
</svg>
