<svg width="36" height="33" viewBox="0 0 36 33" fill="none" xmlns="http://www.w3.org/2000/svg">
<path fill-rule="evenodd" clip-rule="evenodd" d="M1.7373 0.308075C1.59569 0.449713 1.58313 0.565059 1.58313 1.72592C1.58313 3.35094 1.57781 3.34207 2.57836 3.38055L3.27897 3.40753V10.9559C3.27897 18.4016 3.28105 18.5064 3.43314 18.6586C3.58592 18.8114 3.69006 18.8128 15.0171 18.8128C25.2372 18.8128 26.465 18.8255 26.6182 18.9328L26.7895 19.0528V22.4024C26.7895 25.6492 26.7942 25.7567 26.9437 25.9062C27.094 26.0566 27.2006 26.0604 31.1714 26.0604C35.0198 26.0604 35.2519 26.0526 35.3724 25.9194C35.4879 25.7918 35.5 25.3721 35.5 21.4889C35.5 17.3507 35.4945 17.1844 35.3417 16.7762C35.1208 16.1856 34.6018 15.6353 33.9744 15.3263L33.461 15.0733L30.4653 15.0491L27.4696 15.0249L24.7592 13.244C22.2458 11.5926 21.6447 11.2567 21.2027 11.2567C20.8635 11.2567 20.227 11.5019 19.962 11.7346C19.1609 12.4381 19.1328 13.7156 19.9027 14.4277C20.0232 14.5391 21.1277 15.298 22.3572 16.1142C23.5867 16.9303 24.6256 17.6285 24.6659 17.6657C24.7079 17.7045 20.3952 17.7333 14.5486 17.7333H4.35814V10.5628V3.39219H18.002H31.6458V5.9766V8.56101L31.4338 8.50172C31.3173 8.46911 30.8923 8.44243 30.4896 8.44243C29.8259 8.44243 29.7085 8.46548 29.2376 8.68862C28.5747 9.00274 28.0456 9.53143 27.7084 10.2167C27.4588 10.7237 27.4447 10.7956 27.4447 11.5651C27.4447 12.3351 27.4587 12.4062 27.7093 12.9154C28.0384 13.5841 28.5545 14.0971 29.2357 14.4326C29.7229 14.6724 29.8028 14.6878 30.565 14.6878C31.3171 14.6878 31.4137 14.6699 31.8956 14.4416C32.5681 14.1229 33.1238 13.5671 33.4424 12.8944C33.6706 12.4126 33.6885 12.3156 33.6885 11.5651C33.6885 10.8412 33.6659 10.7072 33.4745 10.2983C33.3567 10.0468 33.1399 9.69404 32.9927 9.51431L32.725 9.18747V6.2975V3.40753L33.4256 3.38055C34.4261 3.34207 34.4208 3.35094 34.4208 1.72592C34.4208 0.565059 34.4083 0.449713 34.2667 0.308075C34.1135 0.154872 34.0097 0.15387 18.002 0.15387C1.99422 0.15387 1.89046 0.154872 1.7373 0.308075ZM33.3417 1.77303V2.31275H18.002H2.6623V1.77303V1.23331H18.002H33.3417V1.77303ZM5.85781 4.89223C5.75375 4.99632 5.66857 5.15399 5.66857 5.24266C5.66857 5.33133 5.75375 5.489 5.85781 5.59309L6.04697 5.78238H15.0343H24.0215L24.2107 5.59309C24.3148 5.489 24.3999 5.33133 24.3999 5.24266C24.3999 5.15399 24.3148 4.99632 24.2107 4.89223L24.0215 4.70294H15.0343H6.04697L5.85781 4.89223ZM5.85781 7.59083C5.62664 7.82198 5.61854 8.01104 5.82836 8.27781L5.98808 8.48098H11.7253C17.3596 8.48098 17.4652 8.4782 17.6166 8.32677C17.8384 8.10487 17.8161 7.75683 17.5676 7.56137C17.3663 7.40301 17.3139 7.40154 11.7058 7.40154H6.04697L5.85781 7.59083ZM31.591 9.73953C32.253 10.1276 32.6434 10.7766 32.6462 11.4935C32.6496 12.3462 32.2861 12.976 31.5576 13.3796C31.2015 13.5769 31.0653 13.6081 30.5666 13.6065C29.8964 13.6045 29.5419 13.4537 29.0913 12.9788C28.7209 12.5885 28.5583 12.2505 28.509 11.7684C28.4116 10.8176 28.9805 9.92743 29.9114 9.57399C30.0386 9.52565 30.3905 9.49743 30.6934 9.51115C31.1192 9.5305 31.3228 9.58232 31.591 9.73953ZM5.82836 9.76359C5.61854 10.0304 5.62664 10.2194 5.85781 10.4506L6.04697 10.6399H11.7058C17.3139 10.6399 17.3663 10.6384 17.5676 10.48C17.8161 10.2846 17.8384 9.93653 17.6166 9.71463C17.4652 9.5632 17.3596 9.56042 11.7253 9.56042H5.98808L5.82836 9.76359ZM6.00119 11.7198C5.66109 11.8569 5.56566 12.3103 5.82274 12.5674C5.97328 12.718 6.07966 12.7216 10.3202 12.7216C14.3593 12.7216 14.672 12.7122 14.7841 12.5867C15.0281 12.3138 14.9576 11.874 14.6471 11.7325C14.4079 11.6235 6.26982 11.6116 6.00119 11.7198ZM21.5499 12.4529C21.6741 12.5171 22.9041 13.3141 24.2834 14.224C25.6626 15.1338 26.8689 15.9227 26.9637 15.9769C27.0928 16.0506 27.916 16.0853 30.2198 16.1142C33.5869 16.1563 33.5031 16.1449 33.99 16.6274C34.4246 17.0581 34.4208 17.0185 34.4208 21.1619V24.981H33.7656H33.1104V22.2868V19.5925L32.939 19.4725C32.6999 19.3049 32.3902 19.323 32.2166 19.5147C32.0792 19.6665 32.0684 19.8466 32.0476 22.329L32.0254 24.981H29.9471H27.8687L27.867 21.9547C27.8655 19.1303 27.8554 18.9065 27.7163 18.6001C27.5778 18.2948 27.3282 18.1134 24.1529 16.0103C22.275 14.7665 20.6698 13.6711 20.5861 13.576C20.2783 13.2271 20.4451 12.5923 20.8926 12.409C21.1273 12.3129 21.3019 12.3246 21.5499 12.4529ZM5.82836 14.0042C5.61854 14.271 5.62664 14.4601 5.85781 14.6912L6.04697 14.8805H8.59429C11.0388 14.8805 11.1478 14.8743 11.2957 14.7263C11.3813 14.6407 11.4499 14.4693 11.4499 14.3408C11.4499 14.2123 11.3813 14.0409 11.2957 13.9553C11.1477 13.8072 11.0388 13.8011 8.56484 13.8011H5.98808L5.82836 14.0042ZM6.00134 19.7415C5.1094 19.9179 4.23604 20.6128 3.80461 21.4895C3.56179 21.9829 3.54876 22.0526 3.54876 22.859C3.54876 23.6423 3.56642 23.745 3.77485 24.1714C4.06392 24.7629 4.73038 25.4295 5.32169 25.7186C5.74804 25.9271 5.85064 25.9448 6.63374 25.9448C7.44003 25.9448 7.50972 25.9318 8.0029 25.6889C9.9764 24.7171 10.4208 22.1682 8.88466 20.6317C8.0954 19.8423 7.07889 19.5285 6.00134 19.7415ZM18.7809 19.783C17.086 20.2388 16.0683 21.9331 16.4922 23.5931C16.7438 24.5783 17.3075 25.261 18.2319 25.7001C18.8781 26.0072 19.8353 26.0775 20.4795 25.8653C21.3797 25.5687 22.0152 25.0044 22.4264 24.1365C22.6452 23.6746 22.6653 23.5662 22.6628 22.8607C22.6594 21.8772 22.4797 21.3858 21.8914 20.7501C21.0522 19.8435 19.8943 19.4834 18.7809 19.783ZM7.28471 20.8624C8.06364 21.0938 8.75192 22.0131 8.75192 22.8221C8.75192 23.4868 8.28371 24.3026 7.70875 24.6396C7.2316 24.9193 6.44241 24.9849 5.92626 24.7877C4.32253 24.1751 4.10238 21.9335 5.56188 21.078C6.15844 20.7283 6.63327 20.6689 7.28471 20.8624ZM20.4059 20.953C20.8519 21.1504 21.224 21.536 21.4548 22.0402C21.6139 22.3878 21.6385 22.5367 21.6077 22.9665C21.5254 24.1169 20.6862 24.9036 19.5437 24.9014C18.7216 24.8999 18.0611 24.4977 17.6918 23.7738C17.4343 23.269 17.4238 22.3947 17.6696 21.9354C18.2142 20.9182 19.3808 20.4994 20.4059 20.953ZM5.12898 26.2987C4.3314 26.4012 3.11625 26.677 2.74555 26.8393C2.22161 27.0689 1.7894 27.4675 1.52801 27.9623C1.34278 28.3128 1.20349 28.8342 0.897159 30.3241C0.680862 31.3758 0.503955 32.3505 0.503955 32.4903C0.503955 33.0307 0.130021 32.9997 6.65447 32.9997H12.523L12.6802 32.8309C12.7666 32.7382 12.8374 32.618 12.8374 32.5639C12.8374 32.2235 11.9682 28.3257 11.8333 28.0613C11.588 27.5802 11.0957 27.0884 10.6515 26.8808C9.54642 26.364 6.83909 26.0786 5.12898 26.2987ZM17.8093 26.3284C16.7109 26.499 15.756 26.7459 15.4098 26.9488C14.958 27.2137 14.4111 27.8516 14.2691 28.2795C14.1342 28.6857 13.3769 32.3019 13.3769 32.5395C13.3769 32.623 13.4463 32.7607 13.5311 32.8455C13.6826 32.997 13.788 32.9997 19.5702 32.9997C25.1736 32.9997 25.4613 32.9929 25.5828 32.8587C25.6529 32.7811 25.7104 32.6264 25.7104 32.5149C25.7104 32.1024 24.9219 28.4757 24.7489 28.0923C24.521 27.5869 24.0324 27.0975 23.5249 26.866C23.3067 26.7665 22.6945 26.5945 22.1645 26.484C20.9554 26.2316 18.9041 26.1584 17.8093 26.3284ZM8.94232 27.5227C9.40744 27.6157 9.91041 27.7428 10.06 27.8052C10.3897 27.9427 10.7933 28.3206 10.9044 28.5957C10.9705 28.7593 11.604 31.7324 11.604 31.8788C11.604 31.9016 9.36435 31.9203 6.62695 31.9203C1.92268 31.9203 1.65204 31.9129 1.69066 31.7853C1.71309 31.7112 1.85762 31.0259 2.01195 30.2625C2.16619 29.4992 2.35528 28.7297 2.43213 28.5523C2.7003 27.9336 3.23295 27.6961 5.01336 27.4017C5.92757 27.2506 7.88149 27.3107 8.94232 27.5227ZM22.0103 27.5613C23.0593 27.7851 23.4321 27.9683 23.6909 28.3876C23.7884 28.5453 23.9775 29.264 24.1845 30.2625L24.5201 31.8817L19.5914 31.9015C16.8807 31.9125 14.6461 31.9047 14.6258 31.8843C14.6054 31.864 14.7334 31.145 14.9102 30.2865C15.2916 28.4354 15.4124 28.1728 16.017 27.8815C16.3558 27.7183 17.3112 27.4971 18.3489 27.3416C18.476 27.3225 19.1351 27.318 19.8134 27.3314C20.7886 27.3508 21.2485 27.3989 22.0103 27.5613Z" fill="#00544E"/>
</svg>
