<svg width="36" height="36" viewBox="0 0 36 36" fill="none" xmlns="http://www.w3.org/2000/svg">
<path fill-rule="evenodd" clip-rule="evenodd" d="M30.1682 4.25327C29.9535 4.14956 29.7701 4.16741 29.624 4.28151C29.4689 3.2337 28.5658 2.41662 27.4775 2.41662H7.53022C6.33448 2.41662 5.35554 3.39958 5.35554 4.5953C5.35503 4.90231 5.35554 5.20083 5.35554 5.50764H4.4392C3.24346 5.50758 2.26452 6.48652 2.26453 7.68226V32.172C2.26452 33.3678 3.24346 34.3467 4.4392 34.3467H24.5846C25.6725 34.3467 26.5652 33.454 26.5652 32.3661V28.8406L29.455 26.0021C29.5841 25.8731 29.6489 25.8148 29.6473 25.6391L29.6566 12.442L30.6816 10.6677C30.7616 10.5814 31.078 10.2372 31.4098 9.79259C32.1533 8.68671 32.747 7.54122 33.0986 6.44908C33.1539 6.27623 33.1142 6.08717 32.994 5.95121C32.955 5.90548 32.9113 5.85817 32.8723 5.8143L33.5362 4.66357C33.9644 3.92188 33.6837 2.97277 32.9538 2.5513C32.0301 2.11457 31.2292 2.44606 30.8111 3.13873L30.1682 4.25327ZM32.2403 3.37716C32.3092 3.38492 32.3768 3.40537 32.4394 3.44165C32.7108 3.59832 32.7955 3.89014 32.6456 4.14976L32.0914 5.11035C31.8045 4.90084 31.4958 4.72327 31.171 4.57931L31.7051 3.65491C31.8176 3.46019 32.0336 3.35625 32.2403 3.37731V3.37716ZM27.4775 3.44647C28.1166 3.44647 28.6262 3.95608 28.6262 4.59516V5.44714C27.9474 6.49132 27.3804 7.58529 27.055 8.60151L24.3704 13.2436L24.3362 13.2797C23.9246 13.7284 23.7516 13.9349 23.6321 14.1981C23.521 14.4428 23.4836 14.6301 23.3032 15.0782L23.2892 15.0937C22.4342 16.0258 21.7547 17.096 21.2705 18.2592C21.1742 18.485 21.169 18.7163 21.1417 18.922L20.843 21.4477C20.7864 21.9219 21.0384 22.3549 21.3992 22.5633C21.7601 22.7716 22.2641 22.7759 22.6465 22.4899L24.6824 20.965C24.8953 20.8509 25.0517 20.66 25.1944 20.5255C25.9394 19.4298 26.5825 18.251 26.9276 17.179C27.2296 16.7926 27.3727 16.6688 27.5301 16.4487C27.7756 16.0108 27.868 15.7043 27.9837 15.3392L28.6265 14.2267V25.079H23.8969C23.6125 25.0779 23.381 25.3076 23.3799 25.592V30.226H7.33626C6.8051 30.226 6.38572 29.8066 6.38572 29.2755V26.9731C6.67052 26.8962 6.93095 26.9188 7.12402 26.9824C7.37996 27.0676 7.41673 27.224 7.41673 27.1383C7.41776 27.4212 7.64686 27.6502 7.92972 27.6513C8.21415 27.6524 8.44563 27.4227 8.44673 27.1383C8.44673 26.5375 7.96749 26.1779 7.45093 26.0057C7.05755 25.8834 6.74279 25.8945 6.38572 25.9333V23.8773C6.6937 23.7804 6.97304 23.7781 7.1542 23.8271C7.39005 23.8908 7.41673 23.9405 7.41673 24.0473C7.41724 24.3306 7.64647 24.5603 7.92972 24.5614C8.21454 24.5625 8.44618 24.3322 8.44673 24.0473C8.44672 23.4431 7.9564 22.9761 7.41975 22.8313C7.07212 22.7246 6.70834 22.7772 6.38572 22.8138V20.791C6.6937 20.6928 6.97304 20.6877 7.1542 20.7367C7.39005 20.8004 7.41673 20.8511 7.41673 20.958C7.41776 21.2409 7.64686 21.4699 7.92972 21.471C8.21415 21.4721 8.44563 21.2424 8.44673 20.958C8.44672 20.3538 7.95639 19.8858 7.41975 19.7409C7.07207 19.6353 6.70826 19.6877 6.38572 19.7234V17.6996C6.69369 17.6019 6.97304 17.5974 7.1542 17.6463C7.39005 17.71 7.41673 17.7597 7.41673 17.8665C7.4157 18.151 7.64529 18.3825 7.92972 18.3836C8.21572 18.3847 8.44785 18.1526 8.44673 17.8665C8.44672 17.2624 7.95639 16.7984 7.41975 16.6535C7.07231 16.5475 6.7083 16.5985 6.38572 16.6335V14.6087C6.6937 14.511 6.97304 14.5066 7.1542 14.5554C7.39006 14.6191 7.41673 14.6689 7.41673 14.7757C7.4157 15.0601 7.64529 15.2916 7.92972 15.2927C8.21572 15.2938 8.44785 15.0617 8.44673 14.7757C8.44672 14.1715 7.95639 13.7074 7.41975 13.5626C7.07206 13.457 6.7082 13.5094 6.38572 13.5451V11.5183C6.69371 11.4215 6.97304 11.419 7.1542 11.468C7.39006 11.5317 7.41673 11.5815 7.41673 11.6883C7.41776 11.9712 7.64686 12.2002 7.92972 12.2013C8.21572 12.2025 8.44785 11.9703 8.44673 11.6843C8.44672 11.0801 7.95639 10.6171 7.41975 10.4722C7.07212 10.3656 6.70834 10.4181 6.38572 10.4547V8.42789C6.69369 8.331 6.97304 8.32871 7.1542 8.37769C7.39006 8.44141 7.41673 8.49114 7.41673 8.59796C7.41724 8.88121 7.64647 9.11088 7.92972 9.11197C8.21454 9.113 8.44618 8.88278 8.44673 8.59796C8.44672 7.99379 7.95639 7.52674 7.41975 7.3819C7.07212 7.27525 6.70835 7.32777 6.38572 7.36435V6.02155V5.34159C6.69369 5.24346 6.97304 5.23834 7.1542 5.28733C7.39006 5.35104 7.41673 5.40174 7.41673 5.50864C7.41776 5.79149 7.64686 6.02049 7.92972 6.0216C8.21415 6.02261 8.44562 5.79305 8.44673 5.50864C8.44672 4.90445 7.95639 4.43633 7.41975 4.29149C7.08931 4.19166 6.74781 4.23448 6.43903 4.26642C6.57879 3.79165 7.00692 3.44764 7.26857 3.44765L27.4775 3.44647ZM17.9087 4.59119L16.065 6.06579C15.4159 5.1088 14.3196 4.47651 13.0806 4.47651C11.0957 4.47651 9.47659 6.09562 9.47659 8.0805C9.47659 10.0654 11.0957 11.6845 13.0806 11.6845C15.0655 11.6845 16.6846 10.0654 16.6846 8.0805C16.6846 7.70979 16.6285 7.35234 16.5237 7.01531L18.5515 5.39287C18.7722 5.21496 18.8077 4.89225 18.6309 4.67067C18.472 4.48362 18.1314 4.43414 17.9087 4.59128L17.9087 4.59119ZM30.0857 5.33852C30.8124 5.51857 31.468 5.89494 31.9858 6.43593C31.4966 7.72729 30.9419 8.78471 30.137 9.709C29.493 9.33788 28.8494 8.96609 28.2057 8.59451C28.6222 7.39872 29.2501 6.29049 30.0857 5.33852ZM13.0806 5.50746C14.0031 5.50746 14.8022 5.98915 15.2563 6.71249L13.1983 8.3582L12.4801 7.28293C12.3229 7.04498 12.0023 6.98005 11.7649 7.13817C11.5273 7.29564 11.4628 7.61621 11.6211 7.85333L12.6511 9.39634C12.8182 9.64741 13.1644 9.70175 13.4004 9.51413L15.6284 7.73175C15.6438 7.84646 15.6546 7.96176 15.6546 8.08079C15.6546 9.50903 14.5088 10.6588 13.0806 10.6588C11.6523 10.6588 10.5066 9.50903 10.5066 8.08079C10.5066 6.65256 11.6523 5.50779 13.0806 5.50779H13.0806L13.0806 5.50746ZM4.4392 6.53745H5.35554C5.35503 14.0979 5.35547 22.0573 5.35554 29.275C5.35554 30.3628 6.24827 31.2555 7.33609 31.2555H23.8433C24.056 31.2602 24.1248 31.2306 24.2578 31.1077L25.5352 29.8524V32.366C25.5352 32.8972 25.1158 33.3165 24.5847 33.3165H4.43923C3.80014 33.3165 3.29556 32.8109 3.29556 32.1719V7.68212C3.29556 7.04304 3.80014 6.53745 4.43923 6.53745H4.43921H4.4392ZM18.7456 8.59749C18.462 8.598 18.2322 8.82781 18.2316 9.11144C18.2306 9.39628 18.4608 9.62792 18.7456 9.62848H19.7756C20.06 9.62745 20.2897 9.39589 20.2886 9.11144C20.2881 8.82819 20.0589 8.59859 19.7756 8.59749H18.7456ZM21.8356 8.59749C21.5508 8.59647 21.3192 8.82663 21.3186 9.11144C21.3176 9.39744 21.5496 9.62959 21.8356 9.62848H25.4396C25.7256 9.62952 25.9578 9.39744 25.9566 9.11144C25.9561 8.82663 25.7244 8.59636 25.4396 8.59749H21.8356ZM27.7199 9.50477C28.3301 9.85719 28.9403 10.2096 29.5506 10.5619L27.4091 14.2696C26.8817 13.7904 26.258 13.4299 25.5794 13.2124L27.7199 9.50477ZM9.98956 13.7455C9.70513 13.7466 9.47545 13.9781 9.47657 14.2625C9.4776 14.5454 9.7067 14.7744 9.98956 14.7755H21.8356C22.1189 14.7749 22.3485 14.5458 22.3496 14.2625C22.3506 13.9777 22.1204 13.746 21.8356 13.7455H9.98956ZM24.9618 14.1448C25.7099 14.3231 26.3839 14.7127 26.9122 15.2714C26.8221 15.5392 26.7393 15.7801 26.6909 15.8477C26.6539 15.8995 26.563 15.9992 26.4354 16.1475C25.8687 15.612 25.1839 15.2167 24.4368 14.9938C24.5015 14.809 24.5433 14.6805 24.5696 14.6226C24.6039 14.547 24.7748 14.3569 24.9618 14.1448H24.9618ZM9.98956 15.8055C9.70513 15.8066 9.47545 16.0381 9.47657 16.3225C9.47708 16.6058 9.70631 16.8354 9.98956 16.8365H11.0206C11.3038 16.8354 11.533 16.6058 11.5336 16.3225C11.5346 16.0381 11.305 15.8066 11.0206 15.8055H9.98956ZM13.0806 15.8055C12.7946 15.8044 12.5624 16.0365 12.5636 16.3225C12.5641 16.6073 12.7958 16.8376 13.0806 16.8365H14.1106C14.3942 16.8359 14.624 16.6062 14.6246 16.3225C14.6256 16.0377 14.3954 15.806 14.1106 15.8055H13.0806ZM16.1716 15.8055C15.8856 15.8044 15.6535 16.0365 15.6546 16.3225C15.6551 16.6073 15.8868 16.8376 16.1716 16.8365H19.2586C19.5434 16.8376 19.775 16.6073 19.7756 16.3225C19.7766 16.0365 19.5446 15.8044 19.2586 15.8055H16.1716ZM23.9349 15.9694C24.6648 16.1479 25.3219 16.5285 25.842 17.0708C25.4979 18.0849 25.022 19.0509 24.3734 19.8993C24.2442 20.0682 23.7908 20.1667 23.5919 20.0632C23.207 19.8638 22.8324 19.6481 22.4673 19.4144C22.2781 19.2938 22.1371 18.8514 22.2188 18.655C22.6292 17.6691 23.2288 16.7743 23.9349 15.9693V15.9694ZM9.98956 17.8665C9.70513 17.8676 9.47545 18.099 9.47657 18.3834C9.4776 18.6663 9.7067 18.8954 9.98956 18.8964H14.0543C14.3387 18.8976 14.5702 18.6679 14.5713 18.3834C14.5723 18.0974 14.3403 17.8653 14.0543 17.8665H9.98956ZM16.1716 17.8665C15.8856 17.8653 15.6535 18.0974 15.6546 18.3834C15.6556 18.6679 15.8872 18.8976 16.1716 18.8964H18.7456C19.0285 18.8954 19.2575 18.6663 19.2586 18.3834C19.2596 18.099 19.03 17.8676 18.7456 17.8665H16.1716ZM9.98956 19.9264C9.70631 19.9275 9.47712 20.1572 9.47657 20.4404C9.47554 20.7249 9.70513 20.9564 9.98956 20.9575H18.2316C18.5164 20.9569 18.7467 20.7253 18.7456 20.4404C18.7451 20.1568 18.5152 19.927 18.2316 19.9264H9.98956ZM22.0116 20.3409C22.3411 20.5477 22.6766 20.7413 23.0205 20.9233L22.0297 21.6646C21.9767 21.7043 21.9538 21.6922 21.9151 21.6708C21.8763 21.6485 21.858 21.6359 21.8658 21.5702L22.0116 20.3409ZM9.98855 21.9854C9.70413 21.9866 9.47445 22.2181 9.47556 22.5025C9.47659 22.7853 9.70569 23.0144 9.98855 23.0154H11.0186C11.303 23.0166 11.5345 22.7869 11.5356 22.5025C11.5366 22.2165 11.3046 21.9843 11.0186 21.9854H9.98855ZM13.0796 21.9854C12.7947 21.986 12.5645 22.2177 12.5656 22.5025C12.5666 22.7857 12.7963 23.0149 13.0796 23.0154H14.1096C14.394 23.0166 14.6255 22.7869 14.6266 22.5025C14.6276 22.2165 14.3956 21.9843 14.1096 21.9854H13.0796ZM16.1696 21.9854C15.8852 21.9866 15.6555 22.2181 15.6566 22.5025C15.6576 22.7853 15.8867 23.0144 16.1696 23.0154H19.2606C19.5435 23.0144 19.7725 22.7853 19.7736 22.5025C19.7746 22.2181 19.545 21.9866 19.2606 21.9854H16.1696ZM9.98855 24.0465C9.70413 24.0476 9.47445 24.2791 9.47556 24.5635C9.47659 24.8464 9.70569 25.0754 9.98855 25.0765H14.0563C14.3391 25.0754 14.5682 24.8464 14.5693 24.5635C14.5703 24.2791 14.3407 24.0476 14.0563 24.0465H9.98855ZM16.1696 24.0465C15.8852 24.0476 15.6555 24.2791 15.6566 24.5635C15.6576 24.8464 15.8867 25.0754 16.1696 25.0765H21.3216C21.6045 25.0754 21.8335 24.8464 21.8346 24.5635C21.8356 24.2791 21.606 24.0476 21.3216 24.0465H16.1696ZM9.98855 26.1065C9.70413 26.1076 9.47445 26.3391 9.47556 26.6235C9.47659 26.9064 9.70569 27.1354 9.98855 27.1365H18.2306C18.5135 27.1354 18.7425 26.9064 18.7436 26.6235C18.7446 26.3391 18.515 26.1076 18.2306 26.1065H9.98855ZM20.2906 26.1065C20.0046 26.1054 19.7725 26.3375 19.7736 26.6235C19.7746 26.9079 20.0062 27.1376 20.2906 27.1365H21.3216C21.6045 27.1354 21.8335 26.9064 21.8346 26.6235C21.8356 26.3391 21.606 26.1076 21.3216 26.1065H20.2906ZM24.4096 26.108H27.8809L25.6951 28.2535L24.4096 29.5139V26.108Z" fill="#00544E"/>
</svg>
