<svg width="32" height="39" viewBox="0 0 32 39" fill="none" xmlns="http://www.w3.org/2000/svg">
<path fill-rule="evenodd" clip-rule="evenodd" d="M4.43063 8.81924V17.2885L2.48023 20.4104L0.529831 23.533L2.73415 28.8862C4.53143 33.2515 4.84043 34.5161 4.40915 35.7399C4.11777 36.5652 3.87982 37.4902 3.87982 37.7954C3.87982 38.1006 5.86272 38.3506 8.28626 38.3506H12.6927V35.481C12.6927 33.9022 12.8475 32.4446 13.0364 32.2409C13.2253 32.0366 14.3919 32.4267 15.6296 33.1072C17.1195 33.9266 17.9485 34.1189 18.0856 33.6754C18.5863 32.0568 19.3024 33.236 19.3024 35.6787V38.3506H23.7088C26.1323 38.3506 28.1152 38.1006 28.1152 37.7954C28.1152 37.4902 27.8773 36.5652 27.5859 35.7399C27.1546 34.5161 27.4636 33.2509 29.2637 28.8803L31.4702 23.5211L29.2962 20.0702C27.5942 17.3681 27.2405 16.3907 27.6685 15.566C28.0811 14.7716 27.9742 14.3233 27.2317 13.7385C26.2893 12.9951 26.2899 12.8953 27.2549 11.3082C28.4523 9.33759 28.433 9.31562 22.4695 5.83387C19.2489 3.95346 18.7515 3.44165 18.7515 2.00715V0.350586H11.5911H4.43063V8.81924ZM17.6499 12.8193V24.1006H14.8959C13.3812 24.1006 12.1419 23.8334 12.1419 23.5068C12.1419 23.1803 12.609 22.9131 13.1791 22.9131C13.7535 22.9131 14.3451 22.3829 14.5048 21.7256C14.6629 21.0725 15.1878 20.5381 15.6703 20.5381C16.4283 20.5381 16.5483 19.4919 16.5483 12.8888C16.5483 5.73827 16.4762 5.21874 15.4467 4.9284C14.8408 4.75799 14.3451 4.19215 14.3451 3.67202C14.3451 2.93221 13.7436 2.72559 11.5911 2.72559C9.43854 2.72559 8.83706 2.93221 8.83706 3.67202C8.83706 4.19215 8.34134 4.75799 7.73546 4.9284C6.706 5.21874 6.63385 5.73827 6.63385 12.8888C6.63385 19.2924 6.76824 20.5381 7.46005 20.5381C8.01086 20.5381 8.28626 21.1318 8.28626 22.3193C8.28626 23.8233 8.072 24.1006 6.90925 24.1006H5.53224V12.8193V1.53809H11.5911H17.6499V12.8193ZM14.1722 5.2039C15.3498 6.39734 15.4462 6.97149 15.4374 12.7742C15.428 18.704 15.3503 19.1327 14.0427 20.4698C13.281 21.2488 12.604 21.7832 12.5379 21.6573C12.4713 21.5314 12.1347 20.8943 11.7894 20.2412C11.3377 19.3874 10.6801 19.0959 9.44846 19.2045L7.73546 19.3553V13.0081C7.73546 7.30934 7.85773 6.52143 8.93291 5.28702C10.4366 3.56218 12.5181 3.52952 14.1722 5.2039ZM26.459 10.0513C26.4672 11.1723 22.426 18.226 21.4532 18.7871C19.9815 19.6362 20.1043 19.2116 22.6826 14.5323C25.2461 9.88146 25.2499 9.89452 20.8171 7.71605C19.6813 7.15793 18.7515 6.32549 18.7515 5.86652C18.7515 5.28465 19.9198 5.7169 22.6033 7.29212C24.7223 8.53602 26.4573 9.77755 26.459 10.0513ZM21.1988 9.31562C22.2761 10.0008 23.158 10.7097 23.158 10.8914C23.158 11.4133 19.2759 18.7568 19 18.7568C18.8634 18.7568 18.7515 16.3521 18.7515 13.4131C18.7515 10.474 18.8612 8.06934 18.9956 8.06934C19.1294 8.06934 20.1208 8.62984 21.1988 9.31562ZM8.83706 11.6318C8.0048 13.308 9.07391 15.3261 10.6646 15.0821C11.5123 14.9521 11.9177 14.4165 12.0405 13.2646C12.1364 12.3669 12.4773 11.6318 12.7979 11.6318C13.1521 11.6318 13.2512 12.3313 13.0507 13.4131C12.6756 15.4336 13.4583 15.7928 14.3451 14.0068C15.1774 12.3307 14.1083 10.3125 12.5175 10.5566C11.6699 10.6866 11.2645 11.2221 11.1416 12.374C11.0458 13.2718 10.7048 14.0068 10.3843 14.0068C10.0301 14.0068 9.93096 13.3074 10.1315 12.2256C10.5066 10.2051 9.72386 9.84584 8.83706 11.6318ZM26.438 15.0459C26.3648 16.3563 23.8294 20.6349 23.4835 20.0316C23.0649 19.3019 25.2549 14.6006 26.0134 14.6006C26.2607 14.6006 26.4518 14.8007 26.438 15.0459ZM28.5399 20.908L30.1962 23.6535L28.0376 28.8969C26.5091 32.6078 25.9814 34.5815 26.2304 35.6514C26.5752 37.1334 26.5234 37.1631 23.5579 37.1631H20.5334L20.1583 32.8477C19.9292 30.2138 20.0112 27.8857 20.3687 26.8716C20.6909 25.9584 20.9548 24.0258 20.9548 22.5776C20.9548 20.6325 21.1707 19.9443 21.781 19.9443C22.3968 19.9443 22.6116 20.6622 22.6248 22.7646C22.6419 25.5523 23.5397 27.6631 24.7079 27.6631C25.0709 27.6631 24.9453 26.9779 24.3912 25.9371C23.5121 24.2864 23.5292 24.0804 24.7862 21.1871C25.5088 19.524 26.2766 18.1631 26.492 18.1631C26.7068 18.1631 27.6289 19.3987 28.5399 20.908ZM6.11334 25.2881C7.84507 25.2881 8.1414 25.8005 7.07449 26.9506C6.56059 27.5046 6.57766 27.6631 7.1516 27.6631C8.4482 27.6631 9.35207 25.6675 9.37024 22.7646C9.38346 20.6622 9.59828 19.9443 10.2141 19.9443C10.8244 19.9443 11.0403 20.6325 11.0403 22.5776C11.0403 24.0258 11.3041 25.9584 11.6263 26.8716C11.9838 27.8857 12.0659 30.2138 11.8367 32.8477L11.4616 37.1631H8.43718C5.47165 37.1631 5.41987 37.1334 5.76468 35.6514C6.01364 34.5815 5.48652 32.609 3.95969 28.9022L1.80329 23.6642L2.97926 21.6555L4.15523 19.6475L4.32322 22.4678C4.48296 25.1527 4.56888 25.2881 6.11334 25.2881ZM19.3552 23.9349C18.8727 24.8291 18.7824 24.7104 18.7681 23.1607C18.7593 22.1537 18.9372 21.1265 19.1647 20.8777C19.8223 20.1575 19.9848 22.7688 19.3552 23.9349ZM14.1556 26.2939C15.4946 27.2397 15.6213 27.2397 16.2625 26.2939C16.6381 25.7411 17.358 25.2881 17.8626 25.2881C18.7042 25.2881 18.7097 25.4347 17.9253 27.0693C17.4555 28.049 16.8496 28.8506 16.5786 28.8506C15.7227 28.8506 12.7213 26.8039 12.4432 26.0303C12.0863 25.0375 12.4575 25.0945 14.1556 26.2939ZM18.7515 29.3309C18.7515 29.9217 18.4304 30.8782 18.0377 31.4571C17.3553 32.4636 17.2352 32.4636 15.2837 31.4607C14.1617 30.8836 13.2435 30.0606 13.2435 29.6314C13.2435 28.6493 13.7122 28.6725 15.4467 29.7412C17.2754 30.8681 17.5144 30.8396 17.9253 29.4443C18.3605 27.9659 18.7515 27.9125 18.7515 29.3309Z" fill="#00544E"/>
</svg>
