<svg width="28" height="36" viewBox="0 0 28 36" fill="none" xmlns="http://www.w3.org/2000/svg">
<path d="M11.1058 26.4393C11.1305 26.4679 11.1441 26.5056 11.1438 26.5447L10.9863 27.9494C10.9585 28.1786 10.9887 28.4117 11.0738 28.624C11.1589 28.8362 11.2956 29.0197 11.4696 29.155C11.6471 29.2942 11.8555 29.3804 12.0738 29.4051C12.292 29.4297 12.5125 29.3919 12.7129 29.2955L13.9291 28.7102C13.9491 28.6984 13.9715 28.6923 13.9943 28.6923C14.017 28.6923 14.0394 28.6984 14.0594 28.7102L15.2756 29.2955C15.4763 29.3908 15.6965 29.4279 15.9146 29.4033C16.1327 29.3787 16.341 29.2931 16.519 29.155C16.6929 29.0197 16.8297 28.8362 16.9147 28.624C16.9998 28.4117 17.03 28.1786 17.0022 27.9494L16.8448 26.5447C16.8438 26.5083 16.8554 26.4728 16.8773 26.4452L17.7949 25.4326C17.9448 25.2651 18.0493 25.0566 18.0972 24.8296C18.145 24.6026 18.1344 24.3659 18.0664 24.145C17.9998 23.9212 17.8784 23.721 17.7149 23.5654C17.5515 23.4099 17.3522 23.3048 17.1379 23.2612L15.8186 22.9803C15.7993 22.9768 15.781 22.9686 15.765 22.9565C15.749 22.9443 15.7358 22.9284 15.7263 22.91L15.0802 21.6458C14.9712 21.4442 14.8151 21.2769 14.6274 21.1606C14.4397 21.0443 14.227 20.9832 14.0106 20.9832C13.7941 20.9832 13.5814 21.0443 13.3937 21.1606C13.206 21.2769 13.0499 21.4442 12.9409 21.6458L12.284 22.8808C12.2745 22.8992 12.2612 22.9151 12.2453 22.9272C12.2293 22.9394 12.211 22.9475 12.1917 22.951L10.8723 23.2319C10.6581 23.2755 10.4587 23.3806 10.2953 23.5362C10.1319 23.6917 10.0105 23.8919 9.94387 24.1157C9.86769 24.3385 9.85071 24.5798 9.89484 24.8125C9.93896 25.0451 10.0424 25.2599 10.1936 25.4326L11.1058 26.4393ZM10.9592 24.4727C10.9666 24.4473 10.9809 24.4248 11.0003 24.4081C11.0196 24.3914 11.0431 24.3813 11.0678 24.3791L12.3654 24.104C12.5377 24.0667 12.7008 23.9906 12.844 23.8806C12.9871 23.7707 13.1071 23.6294 13.1961 23.466L13.8531 22.2311C13.9237 22.1023 14.0323 22.1023 14.1029 22.2311L14.7598 23.466C14.8523 23.6334 14.9774 23.7771 15.1265 23.8872C15.2755 23.9974 15.445 24.0713 15.6231 24.104L16.9371 24.3791C16.9617 24.3813 16.9852 24.3914 17.0046 24.4081C17.0239 24.4248 17.0382 24.4473 17.0456 24.4727C17.0518 24.4949 17.0525 24.5184 17.0477 24.541C17.043 24.5635 17.0329 24.5844 17.0185 24.6015L16.1063 25.6375C15.9855 25.7765 15.8943 25.9423 15.839 26.1232C15.7837 26.3041 15.7656 26.4959 15.786 26.6851L15.9435 28.0898C15.947 28.113 15.9437 28.1368 15.934 28.1579C15.9242 28.1789 15.9085 28.1961 15.8892 28.2069C15.8667 28.2232 15.8402 28.232 15.8131 28.232C15.7861 28.232 15.7596 28.2232 15.7371 28.2069L14.5209 27.6216C14.3606 27.5434 14.1866 27.5029 14.0106 27.5029C13.8345 27.5029 13.6605 27.5434 13.5002 27.6216L12.284 28.2069C12.2615 28.2232 12.2351 28.232 12.208 28.232C12.1809 28.232 12.1544 28.2232 12.132 28.2069C12.1126 28.1961 12.0969 28.1789 12.0871 28.1579C12.0774 28.1368 12.0741 28.113 12.0777 28.0898L12.2351 26.6851C12.2555 26.4959 12.2375 26.3041 12.1821 26.1232C12.1268 25.9423 12.0356 25.7765 11.9148 25.6375L11.0026 24.6015C10.9853 24.5862 10.9722 24.5662 10.9646 24.5435C10.9569 24.5209 10.9551 24.4964 10.9592 24.4727Z" fill="#00544E"/>
<path d="M16.3824 18.6665C16.3158 18.6392 16.2448 18.6264 16.1735 18.6287C16.1022 18.631 16.0321 18.6484 15.967 18.6799C15.902 18.7114 15.8433 18.7564 15.7944 18.8124C15.7455 18.8683 15.7073 18.9341 15.682 19.006C15.6567 19.0779 15.6448 19.1544 15.6469 19.2312C15.649 19.3081 15.6652 19.3837 15.6944 19.4538C15.7237 19.5239 15.7654 19.5872 15.8173 19.6399C15.8692 19.6926 15.9303 19.7338 15.997 19.761C17.2399 20.2642 18.2796 21.2217 18.9347 22.4666C19.5898 23.7115 19.8187 25.1647 19.5815 26.573C19.3444 27.9812 18.6561 29.255 17.6369 30.1722C16.6176 31.0894 15.332 31.5918 14.0043 31.5918C12.6766 31.5918 11.391 31.0894 10.3718 30.1722C9.35252 29.255 8.66429 27.9812 8.42711 26.573C8.18992 25.1647 8.41884 23.7115 9.07393 22.4666C9.72903 21.2217 10.7687 20.2642 12.0117 19.761C12.0802 19.7344 12.1429 19.6932 12.1963 19.6399C12.2497 19.5867 12.2926 19.5223 12.3225 19.4508C12.3524 19.3793 12.3687 19.302 12.3703 19.2236C12.3719 19.1452 12.3589 19.0672 12.332 18.9943C12.3073 18.9219 12.2695 18.8555 12.2208 18.7989C12.1721 18.7423 12.1136 18.6967 12.0485 18.6646C11.9834 18.6325 11.913 18.6146 11.8415 18.6119C11.77 18.6092 11.6986 18.6218 11.6316 18.649C10.1492 19.2488 8.90914 20.3906 8.12774 21.8751C7.34635 23.3597 7.07321 25.0928 7.35596 26.7723C7.63872 28.4517 8.45943 29.9709 9.67494 31.0648C10.8904 32.1586 12.4236 32.7578 14.007 32.7578C15.5905 32.7578 17.1236 32.1586 18.3391 31.0648C19.5547 29.9709 20.3754 28.4517 20.6581 26.7723C20.9409 25.0928 20.6677 23.3597 19.8863 21.8751C19.1049 20.3906 17.8649 19.2488 16.3824 18.649V18.6665Z" fill="#00544E"/>
<path d="M13.996 19.2868C14.2959 19.2868 14.5389 19.0247 14.5389 18.7015C14.5389 18.3783 14.2959 18.1162 13.996 18.1162C13.6961 18.1162 13.453 18.3783 13.453 18.7015C13.453 19.0247 13.6961 19.2868 13.996 19.2868Z" fill="#00544E"/>
<path d="M23.4745 1.11982C23.4254 1.03739 23.358 0.969556 23.2783 0.922519C23.1986 0.875482 23.1093 0.850749 23.0184 0.850586H4.97074C4.87989 0.850749 4.79053 0.875482 4.71085 0.922519C4.63117 0.969556 4.56371 1.03739 4.51466 1.11982L1.05063 6.97266C1.00298 7.06163 0.97789 7.16256 0.97789 7.2653C0.97789 7.36804 1.00298 7.46897 1.05063 7.55794L7.23484 19.0412C7.14941 19.3302 7.02891 19.6057 6.87649 19.8606C6.65212 20.1451 6.39272 20.3952 6.1055 20.6039C5.52472 20.9791 5.06868 21.5424 4.80242 22.2135C4.66023 22.9088 4.72092 23.6345 4.97617 24.2912C5.10066 24.6683 5.17559 25.0623 5.19877 25.4618C5.17462 25.8611 5.09972 26.255 4.97617 26.6324C4.72066 27.2869 4.65995 28.0109 4.80242 28.7043C5.06868 29.3753 5.52472 29.9386 6.1055 30.3138C6.39272 30.5225 6.65212 30.7726 6.87649 31.0571C7.06261 31.3797 7.20692 31.7283 7.30542 32.0931C7.45997 32.7975 7.81269 33.4333 8.31531 33.9133C8.8913 34.2759 9.55592 34.4412 10.2211 34.3874C10.5755 34.374 10.93 34.4134 11.2744 34.5044C11.588 34.6432 11.8822 34.8284 12.1485 35.0546C12.6734 35.5181 13.318 35.7961 13.9946 35.8506C14.6767 35.7811 15.3219 35.4845 15.8406 35.0019C16.1052 34.7762 16.3976 34.591 16.7093 34.4518C17.0538 34.3607 17.4082 34.3213 17.7627 34.3347C18.4278 34.3886 19.0924 34.2232 19.6684 33.8606C20.171 33.3806 20.5238 32.7448 20.6783 32.0404C20.7768 31.6756 20.9211 31.3271 21.1072 31.0044C21.3316 30.7199 21.591 30.4699 21.8782 30.2611C22.459 29.8859 22.915 29.3227 23.1813 28.6516C23.3195 27.9662 23.2608 27.2517 23.013 26.6031C22.8885 26.226 22.8136 25.832 22.7904 25.4325C22.8145 25.0332 22.8894 24.6393 23.013 24.262C23.2685 23.6074 23.3292 22.8834 23.1867 22.1901C22.9205 21.519 22.4644 20.9557 21.8836 20.5805C21.5964 20.3718 21.337 20.1217 21.1127 19.8372C20.9602 19.5823 20.8397 19.3068 20.7543 19.0178L26.9494 7.58136C26.997 7.49238 27.0221 7.39145 27.0221 7.28871C27.0221 7.18597 26.997 7.08505 26.9494 6.99607L23.4745 1.11982ZM24.1586 4.45008L17.6432 16.5304C17.0403 16.5721 16.4455 16.3625 15.9818 15.9451L23.0401 2.55962L24.1586 4.45008ZM21.1561 3.77701H6.83306L5.90461 2.02115H22.0845L21.1561 3.77701ZM20.5371 4.94758L19.6087 6.70343H8.38047L7.47917 4.94758H20.5371ZM18.9897 7.874L15.0479 15.3247C14.7288 15.1219 14.365 15.0149 13.9946 15.0149C13.6241 15.0149 13.2604 15.1219 12.9413 15.3247L8.99943 7.874H18.9897ZM4.94359 2.57132L12.0019 15.9568C11.5382 16.3743 10.9435 16.5838 10.3405 16.5421L3.82511 4.46179L4.94359 2.57132ZM2.14196 7.28871L3.17357 5.53286L9.15689 16.6533C8.86542 16.7056 8.58845 16.8273 8.34612 17.0095C8.1038 17.1917 7.90222 17.43 7.75607 17.7068L2.14196 7.28871ZM21.2321 21.5345C21.6164 21.7868 21.9298 22.1469 22.1388 22.5763C22.1957 23.0438 22.1338 23.5192 21.9597 23.9518C21.8063 24.4288 21.7202 24.9279 21.7045 25.4325C21.7255 25.938 21.817 26.4372 21.976 26.9133C22.1445 27.3475 22.2008 27.8228 22.1388 28.2887C21.9253 28.7204 21.6061 29.0808 21.2158 29.3305C20.8392 29.605 20.5025 29.9384 20.2168 30.3196C19.9654 30.7338 19.7715 31.1853 19.6413 31.66C19.5462 32.1311 19.332 32.5646 19.0223 32.9125C18.6211 33.1225 18.1741 33.2095 17.7301 33.1641C17.2685 33.1495 16.8074 33.2087 16.3618 33.3397C15.9439 33.5119 15.5522 33.7506 15.1999 34.0479C14.8586 34.3723 14.442 34.5908 13.9946 34.68C13.5414 34.5938 13.1188 34.3752 12.7729 34.0479C12.4206 33.7506 12.029 33.5119 11.611 33.3397C11.1656 33.2083 10.7044 33.1491 10.2428 33.1641C9.79879 33.2095 9.35176 33.1225 8.95056 32.9125C8.6409 32.5646 8.42666 32.1311 8.3316 31.66C8.20135 31.1853 8.00746 30.7338 7.75607 30.3196C7.47037 29.9384 7.13368 29.605 6.75704 29.3305C6.37277 29.0783 6.05935 28.7182 5.85032 28.2887C5.79345 27.8212 5.85537 27.3458 6.02949 26.9133C6.18288 26.4363 6.2689 25.9371 6.28468 25.4325C6.26366 24.927 6.17214 24.4279 6.0132 23.9518C5.84461 23.5176 5.78832 23.0423 5.85032 22.5763C6.06381 22.1446 6.38306 21.7843 6.77333 21.5345C7.14997 21.26 7.48666 20.9267 7.77236 20.5454C8.02375 20.1312 8.21764 19.6797 8.34789 19.2051C8.44295 18.734 8.65719 18.3005 8.96685 17.9526C9.36804 17.7426 9.81508 17.6555 10.2591 17.7009C10.7207 17.7156 11.1818 17.6564 11.6273 17.5253C12.0453 17.3531 12.4369 17.1144 12.7892 16.8171C13.1305 16.4927 13.5471 16.2743 13.9946 16.185C14.4478 16.2712 14.8704 16.4899 15.2162 16.8171C15.5685 17.1144 15.9602 17.3531 16.3781 17.5253C16.8236 17.6567 17.2847 17.7159 17.7464 17.7009C18.1904 17.6555 18.6374 17.7426 19.0386 17.9526C19.3483 18.3005 19.5625 18.734 19.6576 19.2051C19.7878 19.6797 19.9817 20.1312 20.2331 20.5454C20.5188 20.9267 20.8555 21.26 21.2321 21.5345ZM20.2331 17.6834C20.0845 17.4109 19.8819 17.1773 19.6397 16.9992C19.3975 16.8211 19.1218 16.7029 18.8323 16.6533L24.8047 5.58554L25.8363 7.34139L20.2331 17.6834Z" fill="#00544E"/>
</svg>
