<svg width="36" height="36" viewBox="0 0 36 36" fill="none" xmlns="http://www.w3.org/2000/svg">
<path fill-rule="evenodd" clip-rule="evenodd" d="M9.51376 0.917196C5.27414 1.38986 1.72794 4.53628 0.763391 8.68108C0.10439 11.5128 0.698161 14.5515 2.36332 16.8698L2.73759 17.3908V21.0794C2.73759 24.599 2.74381 24.7846 2.87434 25.1329C3.08071 25.6839 3.57366 26.0957 4.15887 26.2061C4.5408 26.2781 5.04265 26.1892 5.38132 25.9896C5.50788 25.915 6.58365 24.7954 7.77188 23.5016L9.93231 21.1492H10.8524H11.7725V21.8588V22.5684L11.5554 22.6583C11.2181 22.7978 10.5855 23.4634 10.3846 23.89C10.2858 24.1001 10.1728 24.4693 10.1336 24.7105C10.0446 25.2582 10.0385 32.7668 10.1265 33.3748C10.301 34.5803 11.2212 35.5621 12.3807 35.7802C12.8797 35.8741 23.1225 35.8741 23.6215 35.7802C24.781 35.5621 25.7012 34.5803 25.8757 33.3748C25.9637 32.7668 25.9576 25.2582 25.8686 24.7105C25.8294 24.4693 25.7164 24.1001 25.6176 23.89C25.4167 23.4634 24.7841 22.7978 24.4467 22.6583L24.2297 22.5684V21.8588V21.1492L25.2393 21.148C28.0798 21.1446 30.5461 20.144 32.506 18.1999C36.5441 14.194 36.4904 7.61028 32.3877 3.70123C30.6875 2.08132 28.7235 1.16642 26.4055 0.914461C25.6064 0.827627 10.2952 0.830088 9.51376 0.917196ZM27.2413 2.1672C30.8196 3.02577 33.4425 5.67121 34.2007 9.18615C34.2975 9.63516 34.325 10.0563 34.323 11.0641C34.3208 12.1932 34.2994 12.4482 34.1593 13.0127C33.5229 15.5795 32.0183 17.58 29.7455 18.8818C28.3827 19.6624 26.7662 20.0483 24.8374 20.0534L24.1789 20.0552L24.1344 19.6613C24.1098 19.4447 23.9863 18.9669 23.8599 18.5996C23.0738 16.3149 21.0873 14.7287 18.6532 14.4419C15.8361 14.11 13.0819 15.8687 12.1423 18.5996C12.0159 18.9669 11.8919 19.4494 11.8667 19.6717L11.8209 20.0759L10.6411 20.0315L9.46127 19.9871L7.18988 22.4655C5.94066 23.8286 4.83136 24.9865 4.72479 25.0386C4.48995 25.1532 4.22917 25.0989 4.03998 24.896C3.90398 24.7502 3.90117 24.6702 3.90117 20.8979V17.0485L3.45661 16.4493C2.70357 15.4344 2.23567 14.4637 1.89905 13.2179C1.69686 12.4696 1.68632 12.3671 1.6816 11.0983C1.67619 9.63681 1.75217 9.10958 2.12171 8.04425C3.14546 5.09277 5.80364 2.75904 8.79741 2.18341C9.09727 2.12577 9.40425 2.06519 9.47954 2.04878C9.55483 2.03237 13.4665 2.02457 18.1722 2.03148C26.1526 2.04317 26.7625 2.05227 27.2413 2.1672ZM7.41198 8.2292C6.89063 8.3025 6.23676 8.63479 5.84765 9.02425C4.74197 10.1309 4.74183 11.8786 5.84744 12.983C7.21732 14.3514 9.53485 13.9563 10.3505 12.2152C11.3099 10.1672 9.64929 7.91461 7.41198 8.2292ZM17.522 8.23433C16.2688 8.4441 15.2831 9.54436 15.2094 10.8156C15.1232 12.3041 16.0929 13.5121 17.5847 13.7746C18.6428 13.9607 19.8686 13.3813 20.4274 12.4307C21.0216 11.4203 20.8899 10.0343 20.1159 9.15142C19.493 8.44082 18.4632 8.07679 17.522 8.23433ZM27.7405 8.2292C26.8888 8.34899 26.0292 8.98691 25.6535 9.77827C24.8446 11.482 25.8801 13.4695 27.7368 13.7768C28.6122 13.9218 29.5101 13.627 30.1548 12.983C31.2564 11.8825 31.2601 10.1307 30.1632 9.03286C29.5267 8.39589 28.6421 8.10243 27.7405 8.2292ZM8.52129 9.48351C8.93259 9.67776 9.18413 9.933 9.37133 10.3462C9.64251 10.9446 9.52526 11.6024 9.05401 12.1259C8.67174 12.5507 8.30329 12.6969 7.71014 12.6592C6.83909 12.6037 6.22711 11.9924 6.1716 11.1223C6.13382 10.529 6.28009 10.1618 6.70713 9.77834C7.2484 9.29214 7.89391 9.18725 8.52129 9.48351ZM18.8517 9.55339C19.9897 10.2196 19.9366 11.886 18.7584 12.4829C17.7725 12.9823 16.5834 12.4202 16.3609 11.3496C16.1856 10.5064 16.685 9.64945 17.5058 9.38457C17.8507 9.27326 18.5157 9.35668 18.8517 9.55339ZM28.6949 9.40187C29.0723 9.51483 29.6008 10.0077 29.7428 10.3793C30.0255 11.1185 29.7273 12.0168 29.0632 12.427C28.6426 12.6868 28.0088 12.7473 27.5483 12.5715C27.1763 12.4297 26.6829 11.9017 26.5698 11.5247C26.1744 10.2064 27.3752 9.00688 28.6949 9.40187ZM19.5411 15.7736C21.1163 16.2867 22.3104 17.4782 22.8385 19.0638C23.005 19.5639 23.0232 19.7266 23.0505 20.9612L23.0804 22.3115H22.5257H21.971L21.9698 21.303C21.9678 19.581 21.6687 18.7089 20.7798 17.8331C19.964 17.0293 19.1197 16.6785 18.0011 16.6785C16.8825 16.6785 16.0382 17.0293 15.2224 17.8331C14.3335 18.7089 14.0344 19.581 14.0324 21.303L14.0312 22.3115H13.4765H12.9218L12.9517 20.9612C12.979 19.7266 12.9972 19.5639 13.1637 19.0638C13.7483 17.3088 15.1276 16.0581 16.9402 15.6395C17.5986 15.4875 18.8631 15.5527 19.5411 15.7736ZM18.7892 17.9047C19.6914 18.1667 20.5229 19.005 20.7018 19.833L20.7498 20.0552H18.0011H15.2524L15.3004 19.833C15.4742 19.0285 16.2377 18.234 17.1283 17.9309C17.578 17.7778 18.3123 17.7662 18.7892 17.9047ZM20.8074 21.7304V22.3115H18.0011H15.1948V21.7304V21.1492H18.0011H20.8074V21.7304ZM23.8293 23.6294C24.042 23.7338 24.2973 23.9256 24.3966 24.0557C24.7817 24.56 24.7773 24.5015 24.7773 29.0641C24.7773 32.0897 24.7547 33.3449 24.6968 33.538C24.5915 33.8891 24.1357 34.4007 23.7875 34.5588C23.5266 34.677 23.1993 34.6842 18.0011 34.6842C12.8029 34.6842 12.4756 34.677 12.2147 34.5588C11.8665 34.4007 11.4107 33.8891 11.3054 33.538C11.2475 33.3449 11.2249 32.0897 11.2249 29.0641C11.2249 24.5464 11.2233 24.5684 11.5793 24.0874C11.7757 23.8221 12.1184 23.6077 12.522 23.4976C12.7596 23.4328 14.0899 23.4159 18.138 23.4262L23.4426 23.4397L23.8293 23.6294ZM17.2537 24.6765C16.3628 24.9158 15.6309 25.6182 15.3294 26.5233C15.0115 27.4776 15.2664 28.5849 15.9738 29.3224L16.2899 29.652V31.6226V33.5932H18.0011H19.7123V31.6226V29.652L20.0284 29.3224C20.7358 28.5849 20.9907 27.4776 20.6728 26.5233C20.1936 25.0848 18.7123 24.2847 17.2537 24.6765ZM18.7198 25.8628C19.5393 26.219 19.9159 27.3084 19.5029 28.1279C19.3784 28.3749 18.9535 28.8005 18.6916 28.9406C18.5525 29.0149 18.5487 29.0628 18.5487 30.7239V32.4308H18.0011H17.4535V30.7239C17.4535 29.0628 17.4497 29.0149 17.3106 28.9406C17.0487 28.8005 16.6238 28.3749 16.4993 28.1279C16.1952 27.5246 16.2973 26.7701 16.7507 26.2687C17.2747 25.6893 17.9841 25.5431 18.7198 25.8628Z" fill="#00544E"/>
</svg>
